<?xml version="1.0" standalone="no"?>
<!DOCTYPE svg PUBLIC "-//W3C//DTD SVG 1.1//EN" "http://www.w3.org/Graphics/SVG/1.1/DTD/svg11.dtd" >
<svg xmlns="http://www.w3.org/2000/svg" xmlns:xlink="http://www.w3.org/1999/xlink" version="1.1">
<metadata>
Created by FontForge 20170731 at Tue May 23 15:04:43 2023
 By Aleksey,,,
Camaufalge(c)RockboyStudio. All Rights Reserved
</metadata>
<defs>
<font id="NVNCamaufalge-Regular" horiz-adv-x="1529" >
  <font-face 
    font-family="NVN Camaufalge"
    font-weight="400"
    font-stretch="normal"
    units-per-em="2048"
    panose-1="2 0 6 0 0 0 0 0 0 0"
    ascent="1638"
    descent="-410"
    x-height="961"
    cap-height="1434"
    bbox="-186 -472 2098 2084.18"
    underline-thickness="150"
    underline-position="-442"
    unicode-range="U+000D-20AC"
  />
<missing-glyph horiz-adv-x="100" 
 />
    <glyph glyph-name=".notdef" horiz-adv-x="100" 
 />
    <glyph glyph-name=".null" horiz-adv-x="0" 
 />
    <glyph glyph-name=".null" horiz-adv-x="0" 
 />
    <glyph glyph-name="uni000D" unicode="&#xd;" horiz-adv-x="512" 
 />
    <glyph glyph-name="space" unicode=" " horiz-adv-x="500" 
 />
    <glyph glyph-name="space" unicode="&#xa0;" horiz-adv-x="500" 
 />
    <glyph glyph-name="exclam" unicode="!" horiz-adv-x="255" 
d="M77 153v0q32 0 55 -22.5t23 -55.5q0 -32 -23 -54.5t-55 -22.5t-54.5 22.5t-22.5 54.5q0 33 22.5 55.5t54.5 22.5zM139 1433v0v-1135h-113v1135h113z" />
    <glyph glyph-name="quotedbl" unicode="&#x22;" horiz-adv-x="357" 
d="M23 1183v0l-23 250h113l-23 -250h-67zM145 1433v0h112l-22 -250h-68z" />
    <glyph glyph-name="numbersign" unicode="#" horiz-adv-x="1592" 
d="M1492 910v0h-256l-189 -435h205v-112h-253l-158 -363h-122l157 363h-507l-158 -363h-124l158 363h-245v112h294l189 435h-243v113h292l179 410h122l-178 -410h507l178 410h123l-178 -410h207v-113zM925 475v0l189 435h-508l-189 -435h508z" />
    <glyph glyph-name="dollar" unicode="$" horiz-adv-x="853" 
d="M752 394v0q1 -24 -1 -49q-5 -50 -28 -97q-23 -46 -60 -80q-76 -66 -168 -87q-28 -7 -56 -10v-123h-112v122h-6q-4 0 -9 1q-91 10 -175 55q-86 46 -137 134l89 48q76 -119 235 -137h2h1v496q-55 28 -110 60q-77 42 -142 114q-32 38 -50 88q-8 25 -11 51q-2 25 -2 48
q3 102 68 183q66 77 157 108q44 16 90 23v129l112 -1v-125q82 -5 159 -38q89 -38 149 -119l-82 -58q-82 102 -226 114v-520q61 -31 122 -67q77 -44 139 -121q31 -40 44 -91q6 -26 8 -51zM268 813v0q29 -17 59 -32v458q-29 -5 -56 -15q-70 -24 -113 -76q-43 -53 -45 -123
q0 -18 1 -34q2 -16 7 -30q10 -30 32 -56q45 -52 115 -92zM650 355v0q4 35 -4 65q-7 30 -27 57q-42 53 -111 94q-33 20 -69 39v-437q16 2 32 6q73 17 124 63q49 46 55 113z" />
    <glyph glyph-name="percent" unicode="%" horiz-adv-x="1448" 
d="M639 1029v0q0 -166 -93.5 -284t-226.5 -118q-132 0 -225.5 118t-93.5 284t93.5 283.5t225.5 117.5q133 0 226.5 -117.5t93.5 -283.5zM112 1029v0q0 -120 61 -204.5t146 -84.5q86 0 147 84.5t61 204.5q0 119 -61 204t-147 85q-85 0 -146 -85t-61 -204zM1020 804v0
q135 0 231.5 -117.5t96.5 -283.5t-96.5 -284t-231.5 -118q-136 0 -232 118t-96 284t96 283.5t232 117.5zM1020 113v0q89 0 152.5 85t63.5 205q0 119 -63.5 204t-152.5 85t-152.5 -85t-63.5 -204q0 -120 63.5 -205t152.5 -85zM1050 1433v0h132l-893 -1433h-133z" />
    <glyph glyph-name="ampersand" unicode="&#x26;" horiz-adv-x="1246" 
d="M1146 146v0l-62 -94q-122 82 -238 170q-61 -85 -151 -139q-143 -86 -309 -78q-82 5 -159 38q-79 34 -136 100q-56 69 -74 154q-17 84 3 169q22 84 75 149q51 63 112 110q30 23 60 44q-26 36 -51 74q-42 64 -71 139q-30 76 -26 166q8 91 66 163q60 69 143 98q82 29 169 16
q89 -12 159 -73q68 -65 88 -152q10 -41 10 -87q-2 -46 -19 -89q-38 -84 -100 -136q-60 -52 -122 -92q-41 -27 -80 -52q25 -29 52 -57q98 -102 207 -195q58 -50 118 -99q39 110 31 232l112 7q12 -157 -49 -309q-1 0 -1 -1l-1 -1q120 -92 244 -175zM311 903v0q23 -37 50 -71
q8 5 17 10q37 24 72 48q60 38 109 82q50 44 72 94q10 24 11 50q0 27 -7 57q-14 58 -54 96q-42 37 -100.5 45.5t-115.5 -11.5t-93 -64q-36 -43 -41 -101q-1 -117 80 -235zM637 178v0q72 45 121 114q-71 56 -140 115q-111 95 -214 202q-34 36 -66 73q-31 -22 -61 -45
q-114 -84 -148 -198q-14 -58 -2 -119q12 -59 50 -104q82 -91 216 -98q131 -7 244 60z" />
    <glyph glyph-name="quotesingle" unicode="'" horiz-adv-x="212" 
d="M90 1183h-68l-22 250h112v0z" />
    <glyph glyph-name="parenleft" unicode="(" horiz-adv-x="652" 
d="M552 -186q-232 0 -392 259t-160 635q0 375 160 634t392 259v-113q-179 0 -309.5 -231.5t-130.5 -548.5q0 -318 130.5 -549.5t309.5 -231.5v-113z" />
    <glyph glyph-name="parenright" unicode=")" horiz-adv-x="652" 
d="M0 -73q179 0 309.5 231.5t130.5 549.5q0 317 -130.5 548.5t-309.5 231.5v113q232 0 392 -259t160 -634q0 -376 -160 -635t-392 -259v0v113z" />
    <glyph glyph-name="asterisk" unicode="*" horiz-adv-x="840" 
d="M740 818v0l-258 -149l250 -144l-56 -98l-250 145v-291h-113v290l-249 -144l-56 98l250 144l-258 149l56 97l257 -148v295h113v-296l258 149z" />
    <glyph glyph-name="plus" unicode="+" horiz-adv-x="781" 
d="M681 661v0v-113h-284v-284h-113v284h-284v113h284v284h113v-284h284z" />
    <glyph glyph-name="comma" unicode="," horiz-adv-x="255" 
d="M155 77v0q0 -9 -2 -18q-7 -27 -33 -58.5t-51.5 -55t-32.5 -28.5l-14 17q34 28 69 67q-6 -1 -13 -1q-32 0 -55 22.5t-23 54.5t23 55t55 23t54.5 -23t22.5 -55z" />
    <glyph glyph-name="hyphen" unicode="-" horiz-adv-x="832" 
d="M0 571v112h732v-112v0h-732z" />
    <glyph glyph-name="hyphen" unicode="&#xad;" horiz-adv-x="832" 
d="M0 571v112h732v-112v0h-732z" />
    <glyph glyph-name="period" unicode="." horiz-adv-x="254" 
d="M154 77q0 -32 -22.5 -54.5t-54.5 -22.5t-54.5 22.5t-22.5 54.5t22.5 55t54.5 23t54.5 -23t22.5 -55z" />
    <glyph glyph-name="slash" unicode="/" horiz-adv-x="1126" 
d="M0 0l893 1433h133l-894 -1433v0h-132z" />
    <glyph glyph-name="zero" unicode="0" horiz-adv-x="1006" 
d="M453 2q-190 0 -321.5 198.5t-131.5 487.5q0 288 131.5 487t321.5 199q191 0 322 -199t131 -487q0 -289 -131 -487.5t-322 -198.5zM453 1257q-136 0 -236 -169t-100 -400q0 -232 100 -401t236 -169q137 0 237 169t100 401q0 231 -100 400t-237 169z" />
    <glyph glyph-name="one" unicode="1" horiz-adv-x="417" 
d="M200 1375v0h117v-1375h-117v1186l-127 -103l-73 90l200 163v39z" />
    <glyph glyph-name="two" unicode="2" horiz-adv-x="921" 
d="M2 1l-2 56q0 182 106 288.5t245 186.5q142 81 243 186.5t91 292.5q-14 133 -98 192t-187 55q-97 -4 -177 -62t-80 -174h-116q0 166 112.5 256t255.5 96q144 6 264.5 -79.5t141.5 -274.5q11 -239 -111.5 -370t-276.5 -217q-112 -66 -193.5 -138t-100.5 -178h702v-116v0
h-819z" />
    <glyph glyph-name="three" unicode="3" horiz-adv-x="960" 
d="M736 675v0q124 -122 109 -329q-21 -177 -149 -260t-274 -83q-10 0 -21 1q-156 6 -278.5 93t-122.5 247h117q0 -109 89.5 -164.5t199.5 -59.5q118 -5 213 51.5t110 183.5q12 154 -74 237q-101 84 -232 95h-32h-52h-48.5h-23.5l-1 117h28h54.5h54h23.5q109 4 194 71
q66 62 56 184q-13 104 -99.5 150t-193.5 41q-97 -4 -177 -49t-80 -133h-116q0 146 114.5 219.5t253.5 78.5q147 6 270.5 -65.5t143.5 -232.5q14 -177 -93 -278q-29 -26 -63 -45q54 -27 100 -70z" />
    <glyph glyph-name="four" unicode="4" horiz-adv-x="1136" 
d="M1036 388v0v-116h-180v-272h-116v272h-740l750 1077l19 26h87v-987h180zM222 388v0h518v743z" />
    <glyph glyph-name="five" unicode="5" horiz-adv-x="941" 
d="M693 810v0q148 -107 148 -337q0 -139 -46 -224.5t-97 -128.5q-131 -112 -305 -112q-143 0 -268 84t-125 244h116q0 -103 88 -157t189 -54q114 0 222.5 77.5t108.5 270.5q0 172 -99 242q-80 53 -184 55.5t-189.5 -16t-110.5 -27.5v0h-1l-5 -2v0h-111v650h42h75h625v-116
h-625v-411q87 29 250 38.5t302 -76.5z" />
    <glyph glyph-name="six" unicode="6" horiz-adv-x="1014" 
d="M457 922v0q189 0 323 -134t134 -323t-134 -323t-323 -134t-323 134t-134 323q0 47 10 92q21 137 122 324.5t199.5 335.5t113.5 167l95 -68q-50 -68 -127.5 -187t-151.5 -252q91 45 196 45zM457 125v0q141 0 241 99.5t100 240.5t-100 241t-241 100t-240.5 -100t-99.5 -241
t99.5 -240.5t240.5 -99.5z" />
    <glyph glyph-name="seven" unicode="7" horiz-adv-x="933" 
d="M833 1375v0l-41 -116l-568 -1259h-124l568 1259h-668v116h833z" />
    <glyph glyph-name="eight" unicode="8" horiz-adv-x="1024" 
d="M671 777v0q103 -47 178 -136t75 -225q0 -172 -135.5 -294t-326.5 -122t-326.5 122t-135.5 294q0 242 251 370q-64 40 -108 104t-44 156q0 136 106.5 232.5t256.5 96.5t256.5 -96.5t106.5 -232.5q0 -167 -154 -269zM462 1259v0q-102 0 -174.5 -62.5t-72.5 -150.5
q0 -79 51.5 -125.5t111 -67t84.5 -20.5q102 0 174.5 62.5t72.5 150.5t-72.5 150.5t-174.5 62.5zM462 116v0q143 0 244.5 88t101.5 212q0 141 -115.5 216t-232.5 85q-146 -4 -244.5 -90.5t-98.5 -210.5t101 -212t244 -88z" />
    <glyph glyph-name="nine" unicode="9" horiz-adv-x="1014" 
d="M914 917v0q0 -47 -10 -92q-21 -137 -121.5 -324.5t-199.5 -335.5t-114 -167l-95 68q50 68 127.5 187t151.5 252q-91 -45 -196 -45q-189 0 -323 134t-134 323t134 323t323 134t323 -134t134 -323zM116 917v0q0 -141 100 -241t241 -100t241 100t100 241t-100 240.5
t-241 99.5t-241 -99.5t-100 -240.5z" />
    <glyph glyph-name="colon" unicode=":" horiz-adv-x="254" 
d="M77 849v0q-32 0 -54.5 23t-22.5 55t22.5 54.5t54.5 22.5t54.5 -22.5t22.5 -54.5t-22.5 -55t-54.5 -23zM77 519v0q32 0 54.5 -22.5t22.5 -54.5t-22.5 -54.5t-54.5 -22.5t-54.5 22.5t-22.5 54.5t22.5 54.5t54.5 22.5z" />
    <glyph glyph-name="semicolon" unicode=";" horiz-adv-x="255" 
d="M77 849v0q-32 0 -54.5 23t-22.5 55t22.5 54.5t54.5 22.5t55 -22.5t23 -54.5t-23 -55t-55 -23zM77 519v0q32 0 55 -22.5t23 -54.5q0 -9 -3 -18q-7 -28 -32.5 -59t-51 -54.5t-33.5 -29.5l-14 18q34 27 70 67q-7 -1 -14 -1q-32 0 -54.5 22.5t-22.5 54.5t22.5 54.5t54.5 22.5
z" />
    <glyph glyph-name="less" unicode="&#x3c;" horiz-adv-x="684" 
d="M584 990v0l-449 -285l449 -285l-61 -95l-523 333v95l523 332z" />
    <glyph glyph-name="equal" unicode="=" horiz-adv-x="721" 
d="M0 802v0h621v-113h-621v113zM0 409v0v113h621v-113h-621z" />
    <glyph glyph-name="greater" unicode="&#x3e;" horiz-adv-x="683" 
d="M60 1085l523 -332v-95l-523 -333l-60 95l449 285l-449 285v0z" />
    <glyph glyph-name="question" unicode="?" horiz-adv-x="823" 
d="M360 1430v0q133 3 241.5 -78t120.5 -255q1 -154 -62.5 -252.5t-141.5 -170.5q-75 -70 -127.5 -147t-52.5 -202h-112q0 160 66.5 257.5t145.5 170.5q73 69 123 145.5t49 195.5q-9 124 -84.5 175t-164.5 49q-96 -2 -172.5 -57t-76.5 -160h-112q0 158 111.5 242t248.5 87z
M277 155v0q32 0 55 -23t23 -55t-23 -54.5t-55 -22.5t-54.5 22.5t-22.5 54.5t22.5 55t54.5 23z" />
    <glyph glyph-name="at" unicode="@" horiz-adv-x="1668" 
d="M784 1406v0q324 0 554 -206t230 -496q0 -169 -60.5 -273.5t-138.5 -160.5t-138 -76.5t-64 -19.5l-30 -6l-1 46v171q-146 -171 -367 -171q-198 0 -339 141t-141 340q0 198 141 339t339 141q199 0 340 -141t141 -339q0 -18 -2 -35v-1v0v-335q72 35 140 123.5t68 256.5
q0 244 -197 417t-475 173t-475 -173t-197 -417t197 -417.5t475 -173.5v-112q-324 0 -554 206t-230 497q0 290 230 496t554 206zM769 327v0q153 0 260.5 108t107.5 260t-107.5 260t-260.5 108q-152 0 -260 -108t-108 -260t108 -260t260 -108z" />
    <glyph glyph-name="A" unicode="A" horiz-adv-x="1408" 
d="M1186 0v0l-187 453h-690l-187 -453h-122l593 1434h61h61l593 -1434h-122zM356 565v0h596l-298 722z" />
    <glyph glyph-name="B" unicode="B" horiz-adv-x="1029" 
d="M833 650v0q94 -110 96 -255q0 -70 -25 -136t-70 -118q-95 -108 -236 -134q-34 -6 -68 -6h-61h-121h-236v-1h-112v1434h112v-3h169h113h57q33 0 65 -6q132 -24 222 -125q89 -104 91 -240q-2 -137 -90 -240q-29 -34 -65 -59q93 -36 159 -111zM281 1330v0h-169v-541h170h113
h56q24 0 48 4q98 19 163 93q65 75 66 174q-2 98 -66 173q-66 74 -164 92q-24 5 -48 5h-56h-113zM757 207v0q70 81 71 188q-2 107 -71 188q-72 80 -178 100q-25 4 -51 5h-61h-120h-235v-586h236h120h60q27 0 52 5q106 19 177 100z" />
    <glyph glyph-name="C" unicode="C" horiz-adv-x="1441" 
d="M714 2q-294 0 -499.5 204.5t-214.5 506.5q6 303 207 506t504 212q294 -3 506 -207l-79 -79q-184 174 -424 174h-3q-255 -8 -424 -179t-175 -426q8 -255 181 -427t421 -172h3q348 13 526 313l98 -54q-210 -356 -623 -372h-4z" />
    <glyph glyph-name="D" unicode="D" horiz-adv-x="1134" 
d="M1012 891v0q22 -86 22 -174q0 -180 -86 -338q-43 -78 -103 -143q-61 -64 -134 -113q-74 -48 -157 -78t-170 -40l-32 -2q-6 -1 -12 -1q-7 -1 -14 -1h-29h-82h-102v-1h-113v1434h113v-3h100h82q14 0 29 -1h14q4 0 7 -1q19 -1 37 -3q87 -9 170 -38q83 -30 157 -78
q74 -49 134 -113q60 -65 104 -142q42 -78 65 -164zM859 427v0q74 136 74 290q-1 154 -75 289q-37 66 -88 122q-53 55 -116 97q-64 41 -136 67q-71 26 -147 34q-15 1 -29 2q-4 1 -9 1h-14q-12 1 -25 1h-81h-100v-1228h102h81h24q7 0 15 1q6 0 12 1q13 0 26 2q75 8 147 34
t135 68q64 42 116 97q51 56 88 122z" />
    <glyph glyph-name="E" unicode="E" horiz-adv-x="946" 
d="M840 1321v0h-727v-522h614v-108h-614v-579h727v-112h-727h-98h-15v1434h15v0h825v-113z" />
    <glyph glyph-name="F" unicode="F" horiz-adv-x="940" 
d="M840 1321v0h-727v-522h615v-108h-615v-691h-113v1434h15v0h825v-113z" />
    <glyph glyph-name="G" unicode="G" horiz-adv-x="1531" 
d="M725 719v0h706v-1q0 -296 -209.5 -506t-505.5 -210t-506 210t-210 506t210 506t506 210q269 0 484 -189l-76 -83q-181 159 -408 159q-250 0 -427 -176.5t-177 -426.5q0 -249 177 -426t427 -177q222 0 386.5 140.5t206.5 356.5h-584v107z" />
    <glyph glyph-name="H" unicode="H" horiz-adv-x="1143" 
d="M880 1434v0h113v-1434h-113v666h-768v-666h-112v1434h112v-661h768v661z" />
    <glyph glyph-name="I" unicode="I" horiz-adv-x="263" 
d="M0 0v1434h113v-1434h-113z" />
    <glyph glyph-name="J" unicode="J" horiz-adv-x="607" 
d="M457 474v0v0v-1v-17q-5 -194 -136.5 -325t-320.5 -131v112q142 0 241.5 99t103.5 245v14v0v1v1v1v0v1v1v0q0 59 -0.5 160t-0.5 207t-0.5 181l-0.5 75v336h113v-473h1v-61v-146.5v-163.5v-116z" />
    <glyph glyph-name="K" unicode="K" horiz-adv-x="1139" 
d="M1039 0v0h-176l-751 623v-623h-112v1434h112v-682l755 682h167l-825 -746z" />
    <glyph glyph-name="L" unicode="L" horiz-adv-x="1039" 
d="M113 112v0h826v-112h-826h-98h-15v1434h113v-1322z" />
    <glyph glyph-name="M" unicode="M" horiz-adv-x="1432" 
d="M1282 1407v0v-4v-1403h-112v1201l-479 -859h-98l-480 862v-1204h-113v1406v0v1v27h113l529 -950l528 948l1 2h64h47v-27z" />
    <glyph glyph-name="N" unicode="N" horiz-adv-x="1248" 
d="M1098 1434v0v-1434h-61h-68l-856 1242v-1242h-113v1434h49h68l869 -1260v1260h112z" />
    <glyph glyph-name="O" unicode="O" 
d="M715 2q-296 0 -505.5 209.5t-209.5 504.5q0 296 209.5 505.5t505.5 209.5q295 0 504.5 -209.5t209.5 -505.5q0 -295 -209.5 -504.5t-504.5 -209.5zM715 1319q-249 0 -425.5 -177t-176.5 -426t176.5 -425.5t425.5 -176.5t425.5 176.5t176.5 425.5t-176.5 426t-425.5 177z
" />
    <glyph glyph-name="P" unicode="P" horiz-adv-x="1029" 
d="M904 1174v0q25 -66 25 -136q-2 -145 -96 -254q-95 -107 -236 -133q-34 -6 -68 -6h-61h-121h-234v-645h-113v1434h113v-1h235h121h61q34 -1 68 -7q141 -26 236 -133q45 -53 70 -119zM757 850v0q70 82 71 188q-1 107 -71 189q-71 80 -177 100q-25 4 -51 5h-60h-121h-235
v-586h234h121h60q26 0 52 5q105 19 177 99z" />
    <glyph glyph-name="Q" unicode="Q" 
d="M1429 716v0q0 -395 -356 -617h341v-97h-693v0h-3h-4q-295 0 -504.5 209.5t-209.5 504.5q0 296 209.5 505.5t504.5 209.5q296 0 505.5 -209.5t209.5 -505.5zM112 716v0q0 -249 176.5 -425.5t425.5 -176.5t426 176.5t177 425.5t-177 426t-426 177t-425.5 -177t-176.5 -426z
" />
    <glyph glyph-name="R" unicode="R" horiz-adv-x="1064" 
d="M824 0v0l-439 645h-273v-645h-112v1434h112v-1h235h121h61q34 -1 68 -7q141 -26 236 -133q46 -53 71 -119q24 -66 24 -136q-2 -145 -96 -254q-95 -107 -236 -133q-34 -6 -68 -6h-3l439 -645h-140zM112 1332v0v-586h234h121h60q26 0 52 5q106 19 177 99q70 82 71 188
q-1 107 -70 189q-71 80 -177 100q-26 4 -52 5h-60h-121h-235z" />
    <glyph glyph-name="S" unicode="S" horiz-adv-x="958" 
d="M788 517v0q33 -46 46 -104q7 -29 7 -56q1 -27 -2 -55q-7 -56 -33 -107q-27 -51 -70 -88q-86 -72 -190 -92q-102 -21 -203 -7q-103 14 -195 67q-94 54 -148 154l100 51q82 -136 259 -160q83 -12 163 5q82 17 140 66q56 50 65 125q5 38 -2 72q-8 34 -29 65q-46 61 -121 108
q-74 46 -156 89q-7 4 -14 7q-75 39 -151 85q-84 49 -155 132q-34 43 -52 99q-9 28 -11 57q-2 28 -1 54q6 113 80 202q76 84 178 116q101 33 204 26q103 -5 199 -50q98 -44 162 -136l-93 -63q-98 127 -275 137q-83 5 -161 -20q-78 -26 -129 -83q-48 -57 -53 -135
q-1 -20 1 -38q1 -18 6 -34q10 -33 34 -63q49 -59 126 -106q70 -43 148 -83q5 -2 10 -5q1 -1 2 -1q81 -42 162 -93q85 -51 152 -138z" />
    <glyph glyph-name="T" unicode="T" horiz-adv-x="1270" 
d="M1170 1434v0v-113h-529v-1321h-112v1321h-529v113h1170z" />
    <glyph glyph-name="U" unicode="U" horiz-adv-x="1214" 
d="M532 2q-220 0 -373 146t-159 361v922h112v-922q5 -168 126 -281.5t294 -113.5t294 113.5t126 281.5v922h112v-922q-6 -215 -159 -361t-373 -146z" />
    <glyph glyph-name="V" unicode="V" horiz-adv-x="1408" 
d="M714 0h-60h-61l-593 1434h121l533 -1287l532 1287h122v0z" />
    <glyph glyph-name="W" unicode="W" horiz-adv-x="2198" 
d="M1980 1434v0h118l-494 -1434h-119l-436 1263l-436 -1263h-119l-494 1434h119l435 -1263l435 1263h1h118h1l435 -1263z" />
    <glyph glyph-name="X" unicode="X" horiz-adv-x="1354" 
d="M1254 1434v0l-556 -722l549 -712h-141l-479 620l-479 -620h-141l549 712l-556 722h142l485 -630l485 630h142z" />
    <glyph glyph-name="Y" unicode="Y" horiz-adv-x="1354" 
d="M1254 1434l-571 -741v-694h-112v694l-571 741h142l485 -630l485 630h142z" />
    <glyph glyph-name="Z" unicode="Z" horiz-adv-x="1205" 
d="M1079 1434v0v-112v-1v0l-933 -1209h959v-113l-1045 1h-60v107l937 1214l-937 -2v112l1024 3h55z" />
    <glyph glyph-name="bracketleft" unicode="[" horiz-adv-x="503" 
d="M403 1488v0h-291v-1561h291v-113h-347h-56v57v1674v56h56h347v-113z" />
    <glyph glyph-name="backslash" unicode="\" horiz-adv-x="1125" 
d="M893 0v0l-893 1433h132l893 -1433h-132z" />
    <glyph glyph-name="bracketright" unicode="]" horiz-adv-x="503" 
d="M347 1601v0h56v-56v-1674v-57h-56h-347v113h291v1561h-291v113h347z" />
    <glyph glyph-name="asciicircum" unicode="^" horiz-adv-x="640" 
d="M473 1019v0l-203 318l-203 -318l-67 42l236 372h68l236 -372z" />
    <glyph glyph-name="underscore" unicode="_" horiz-adv-x="832" 
d="M0 0v112h732v-112v0h-732z" />
    <glyph glyph-name="grave" unicode="`" horiz-adv-x="575" 
d="M68 211l66 98l288 -207l-52 -79z" />
    <glyph glyph-name="a" unicode="a" horiz-adv-x="1111" 
d="M961 480q0 -17 -2 -34v0v0v-1v0v0v0v0v-1v0v-444h-112v171q-146 -171 -367 -171q-198 0 -339 141t-141 339q0 199 141 340t339 141q199 0 340 -141t141 -340zM480 113q153 0 260.5 107.5t107.5 259.5q0 153 -107.5 260.5t-260.5 107.5q-152 0 -260 -107.5t-108 -260.5
q0 -152 108 -259.5t260 -107.5z" />
    <glyph glyph-name="b" unicode="b" horiz-adv-x="1060" 
d="M480 961v0q199 0 339.5 -141t140.5 -340q0 -198 -140.5 -339t-339.5 -141q-198 0 -339 141t-141 339q0 11 1 21v8v924h113v-643q146 171 366 171zM480 113v0q152 0 260 107.5t108 259.5q0 153 -108 260.5t-260 107.5q-145 0 -248.5 -96.5t-117.5 -242.5v-15h-1
q0 -3 -1 -6v-8q0 -152 108 -259.5t260 -107.5z" />
    <glyph glyph-name="c" unicode="c" horiz-adv-x="989" 
d="M496 0q-25 0 -51 3q-196 23 -323 176q-106 134 -106 300q0 25 3 52q23 197 175 323q135 107 301 107q26 0 52 -3q197 -23 323 -176l-88 -70q-96 117 -247 134q-21 2 -41 2q-126 0 -229 -81q-117 -97 -135 -248q-2 -20 -2 -39q0 -127 82 -231q96 -117 247 -134
q18 -1 36 -1q187 0 304 155l92 -64q-160 -205 -393 -205z" />
    <glyph glyph-name="d" unicode="d" horiz-adv-x="1111" 
d="M959 509v0q0 -4 1 -8q1 -10 1 -21q0 -198 -141 -339t-340 -141q-198 0 -339 141t-141 339q0 199 141 340t339 141q221 0 367 -171v643h112v-924zM480 113v0q152 0 260 107.5t108 259.5v8v6h-1v15q-15 146 -118.5 242.5t-248.5 96.5q-152 0 -260 -107.5t-108 -260.5
q0 -152 108 -259.5t260 -107.5z" />
    <glyph glyph-name="e" unicode="e" horiz-adv-x="1003" 
d="M496 0q-25 0 -50 3q-197 23 -323 176q-107 134 -107 300q0 26 3 52q27 202 167.5 315.5t313.5 113.5q23 0 47 -2q197 -23 323 -176l33 -40l-605 -571q72 -47 159 -56q18 -1 36 -1q188 0 305 155l92 -64q-161 -205 -394 -205zM496 849q-139 0 -243 -92.5t-122 -237.5
q-2 -21 -2 -41q0 -126 81 -229q2 -2 3 -4l535 505q-90 82 -213 96q-19 3 -39 3z" />
    <glyph glyph-name="f" unicode="f" horiz-adv-x="666" 
d="M566 1321v0q-142 0 -241 -99t-104 -245v-14h1v0q-1 -1 0 -2h-1h345v-97h-344v-223.5t0.5 -213l0.5 -91.5v-336h-112v472h-2v65.5v155.5v171h-109v97h109v16q6 194 137 325t320 131v-112z" />
    <glyph glyph-name="g" unicode="g" horiz-adv-x="1060" 
d="M960 481q0 -162 -96 -288q88 -110 88 -253v-9q-8 -162 -126 -275q-124 -106 -269 -106q-159 0 -289 125l82 77q84 -86 143 -88t65 -2q106 0 192 76q84 81 89 197v10q0 92 -53 166q-132 -110 -306 -110q-198 0 -339 140.5t-141 339.5t141 339.5t339 140.5
q199 0 339.5 -140.5t140.5 -339.5zM480 113q152 0 260 108t108 260t-108 260t-260 108t-260 -108t-108 -260t108 -260t260 -108z" />
    <glyph glyph-name="h" unicode="h" horiz-adv-x="1063" 
d="M913 506v-3v-1v-4v-1v-3v-5v-2v-32v-8v-24v-22v-5v-15v-5v-8v-13v-6v-60v-12v-34v-25v-6v-16v-5v-8v-14v-5v-53v-9v-26v-18v-4v-11v-3v-5v-7v-3v-20v-2v-3h-112v3v2v1v1v2v1v2v2v40v8v6v5v9v22v4v5v5v5v6v5v5v5v75v12v9v6v12v27v6v5v6v6v5v6v5v6v69v10v7v5v9v18v4v4v3v4
v3v3v3v3v27v2v1v1q-4 145 -103 244t-241 99q-134 0 -230 -88t-113 -221v-540h-112v504h-2q0 20 2 38v891h112v-627q138 155 343 155q188 0 319.5 -131t136.5 -324z" />
    <glyph glyph-name="i" unicode="i" horiz-adv-x="304" 
d="M77 1099q-32 0 -54.5 22.5t-22.5 54.5t22.5 54.5t54.5 22.5t54.5 -22.5t22.5 -54.5t-22.5 -54.5t-54.5 -22.5zM21 0v962h112v-962h-112z" />
    <glyph glyph-name="j" unicode="j" horiz-adv-x="627" 
d="M400 1099v0q-32 0 -55 22.5t-23 54.5t23 54.5t55 22.5t54.5 -22.5t22.5 -54.5t-22.5 -54.5t-54.5 -22.5zM456 490v0h1v-4v-119v-205.5v-159.5v0v0v0v0v-17q-5 -194 -136.5 -325t-320.5 -131v112q142 0 241.5 99t103.5 245v13v0v1v2v0v1v0v1v1q0 59 -0.5 160t-0.5 206.5
t-0.5 180.5l-0.5 75v336h113v-472z" />
    <glyph glyph-name="k" unicode="k" horiz-adv-x="810" 
d="M239 481v0h-4l470 -480h-140l-452 462v-463h-113v1433h113v-938l457 467h140z" />
    <glyph glyph-name="l" unicode="l" horiz-adv-x="262" 
d="M112 1435v0v-1433h-112v1433h112z" />
    <glyph glyph-name="m" unicode="m" horiz-adv-x="1865" 
d="M1715 506v0v-76v-173.5v-173.5v-83h-112v75v174v174v83q-4 145 -103 244t-242 99q-142 0 -241 -98.5t-103 -244.5v0v0v-60v-143.5v-161.5v-119v-9v-13v0h-112v0v13v9v135v185.5v141.5v22v0v0q-5 146 -104 244.5t-241 98.5t-241 -99t-103 -245v-75v-177v-170v-83h-113v75
v178v170v83q6 193 137.5 324t319.5 131q259 0 401 -237q142 237 400 237q189 0 320.5 -131t136.5 -324z" />
    <glyph glyph-name="n" unicode="n" horiz-adv-x="1063" 
d="M801 0v1v4v2v1v2v1v2v2v2v2v43v8v6v5v9v21v5v5v5v5v5v5v5v5v73v12v8v6v12v28v6v6v5v6v6v6v5v6v70v10v7v5v9v18v4v3v4v3v3v3v3v3v23v1v1v0q-4 145 -103 244t-241 99q-143 0 -242 -99t-103 -245v-1v0v-1v0v-3v-1v-1v-4v-2v-2v-2v-2v-33v-3v-9v-4v-4v-4v-4v-4v-2v-10v-5v-4
v-11v-6v-5v-4v-5v-59v-5v-14v-5v-5v-6v-5v-6v-2v-13v-6v-5v-13v-8v-5v-5v-5v-60v-5v-12v-4.5v-4.5v-5v-4v-5v-2v-11v-4v-4v-9v-6v-3v-4v-3v-34v-2v-5v-2v-1v-1v0v-1v0v-2v-1v-2v-1v-1v-3v0v0h-112v506q5 193 136.5 324t320.5 131q188 0 319.5 -131t136.5 -324v-1v-4v-2v-4
v-2v-3v-6v-2v-34v-8v-24v-21v-5v-15v-5v-8v-12v-6v-57v-11v-32v-28v-6v-18v-6v-8v-14v-6v-54v-10v-26v-18v-4v-10v-3v-5v-6v-3v-16v-2v-1h-112z" />
    <glyph glyph-name="o" unicode="o" horiz-adv-x="1061" 
d="M480 0q-198 0 -339 141t-141 340q0 198 141 339t339 141q199 0 340 -141t141 -339q0 -199 -141 -340t-340 -141zM480 848q-152 0 -260 -107.5t-108 -259.5q0 -153 108 -260.5t260 -107.5q153 0 260.5 107.5t107.5 260.5q0 152 -107.5 259.5t-260.5 107.5z" />
    <glyph glyph-name="p" unicode="p" horiz-adv-x="1060" 
d="M480 961v0q199 0 339.5 -140.5t140.5 -339.5t-140.5 -339.5t-339.5 -140.5q-220 0 -366 170v-643h-113v925v7q-1 11 -1 21q0 199 141 339.5t339 140.5zM480 113v0q152 0 260 108t108 260t-108 260t-260 108t-260 -108t-108 -260q0 -4 1 -8v-5h1v-15q14 -146 117.5 -243
t248.5 -97z" />
    <glyph glyph-name="q" unicode="q" horiz-adv-x="1110" 
d="M960 481q0 -10 -1 -21v-1v0v-1v-1v0v0v-1v-2v0v-926h-112v643q-147 -170 -367 -170q-199 0 -339.5 140.5t-140.5 339.5t140.5 339.5t339.5 140.5t339.5 -140.5t140.5 -339.5zM480 113q145 0 248.5 97t118.5 243v15q1 2 1 5v1v2v0v1v0v4q0 152 -108 260t-260 108
t-260 -108t-108 -260t108 -260t260 -108z" />
    <glyph glyph-name="r" unicode="r" horiz-adv-x="580" 
d="M480 961v0v-112v0q-152 0 -258 -105.5t-110 -261.5v-71.5v-165.5v-165.5v-79.5h-112v71.5v165.5v165.5v79.5q5 203 143.5 341t336.5 138v0z" />
    <glyph glyph-name="s" unicode="s" horiz-adv-x="698" 
d="M595 254v-15q0 -38 -13 -78q-18 -46 -52 -79q-34 -32 -74 -50q-76 -32 -152 -32h-9q-81 0 -159 29q-64 24 -115 76l74 85q31 -36 82 -56q60 -22 118 -22t114 22q52 24 68 66q6 17 6 37v10q-1 21 -13 41q-27 41 -85 75q-52 31 -111 59q-5 3 -10 5q-2 2 -5 3
q-61 30 -124 69q-33 21 -64 50t-53 73q-11 23 -15 47q-2 13 -3 25v22q1 46 20 90q45 88 128 123q76 34 155 34h5h5q79 0 155 -30q58 -23 106 -70l-89 -70q-26 22 -60 36q-58 22 -115 22q-58 0 -115 -23q-52 -24 -73 -68q-9 -21 -10 -47v0v-1v0v-1v0v-1v-1v0v-3v0v-1v0v0v-1
v0v-1v0v-1v0v-1v-1v0q0 -6 1 -11q2 -10 7 -20q20 -41 77 -76q54 -35 118 -65h1v-1h1l1 -1h1l1 -1q1 0 1 -1h1v0h1q0 -1 1 -1l1 -1h1l1 -1h1v-1h1q57 -27 115 -61q67 -37 122 -113q26 -42 29 -92z" />
    <glyph glyph-name="t" unicode="t" horiz-adv-x="557" 
d="M112 456q4 -146 103 -244.5t242 -98.5v-113q-189 0 -320.5 131t-136.5 325v505l1 214h113l-0.5 -60.5t-0.5 -151.5h299v-97h-299q0 -118 -0.5 -225.5t-0.5 -165.5v0v0v0v0v-1v0v0v0v0v0v0v0v0v0v0v-1v0v0v0v0v0v0v0v0v-1v0v0v0v0v0v0v0v0v-1v0v0v0v0v0v0v0v0v-1v0v0v0v0
v-1v-1v0v-1v0v-2v-1v-2v-1v-1v-3v-1v0z" />
    <glyph glyph-name="u" unicode="u" horiz-adv-x="1013" 
d="M913 961v-3v-4v-2v-2v-5v-2v-32v-8v-24v-21v-5v-15v-5v-8v-13v-6v-58v-12v-33v-26v-6v-17v-5v-9v-13v-6v-54v-9v-26v-18v-4v-11v-3v-5v-7v-3v-20v-2v-3q-5 -194 -136.5 -325t-319.5 -131q-189 0 -320.5 131t-136.5 325v505h112v0v-1v0v-2v-2v-1v-3v-3v-2v-2v-2v-38v-4
v-10v-5v-5v-4v-5v-5v-2v-13v-5v-5v-12v-8v-6v-5v-5v-69v-6v-16v-6v-6v-6v-5v-6v-3v-14v-6v-5v-14v-8v-5v-5v-6v-60v-5v-11v-5v-5v-4v-4v-4v-2v-10v-4v-3v-9v-4v-3v-3v-3v-22v0v-2v-1q4 -146 103 -244.5t242 -98.5q142 0 241 98.5t103 244.5v3v2v1v1v2v1v2v2v40v8v6v5v9v21v5
v5v5v5v5v6v5v5v75v12v8v6v13v26v6v6v5v6v5v6v6v5v69v10v7v5v9v18v4v4v3v4v3v3v3v3v27v2v1v1h112z" />
    <glyph glyph-name="v" unicode="v" horiz-adv-x="1187" 
d="M1087 961l-471 -916q-24 -43 -73 -45q-49 2 -73 45l-470 916h126l417 -812l417 812h127z" />
    <glyph glyph-name="w" unicode="w" horiz-adv-x="1782" 
d="M1555 961v0h127l-471 -916q-24 -43 -73 -45q-49 2 -73 45l-225 437l-225 -437q-23 -43 -72 -45q-49 2 -73 45l-470 916h126l417 -812l234 456l-182 356h126l120 -233l119 233h127l-183 -356l234 -456z" />
    <glyph glyph-name="x" unicode="x" horiz-adv-x="1042" 
d="M942 0v0h-145l-326 399l-326 -399h-145l399 488l-387 473h144l315 -384l315 384h144l-386 -473z" />
    <glyph glyph-name="y" unicode="y" horiz-adv-x="1187" 
d="M1087 961l-471 -916q-3 -6 -7 -11l-241 -469l-100 51l213 413q-6 7 -11 16l-470 916h126l417 -811l219 427h1l198 384h126z" />
    <glyph glyph-name="z" unicode="z" horiz-adv-x="1031" 
d="M825 961v0q32 0 45 -27.5t-6 -54.5l-639 -782h706v-97h-828q-31 0 -43.5 27t5.5 53l642 784h-707v97h825z" />
    <glyph glyph-name="braceleft" unicode="{" horiz-adv-x="596" 
d="M309 1125v0q-8 -117 -34.5 -232t-102.5 -185q76 -71 102.5 -186t34.5 -232q14 -185 49 -274t138 -89v-113q-184 10 -237.5 155t-61.5 310q-14 190 -51 281t-146 91v113q109 0 146 91.5t51 280.5q8 106 30 212.5t82 179.5t187 73v-113q-103 0 -138 -89t-49 -274z" />
    <glyph glyph-name="bar" unicode="|" horiz-adv-x="243" 
d="M143 1503v0v-1574h-143v1574h143z" />
    <glyph glyph-name="braceright" unicode="}" horiz-adv-x="596" 
d="M299 1136v0q14 -189 51 -280.5t146 -91.5v-113q-109 0 -146 -91.5t-51 -280.5q-8 -165 -61.5 -310t-237.5 -155v113q103 0 138 89t49 274q8 117 34.5 232t102.5 186q-76 70 -102.5 185t-34.5 232q-14 185 -49 274t-138 89v113q184 -10 237.5 -155t61.5 -310z" />
    <glyph glyph-name="exclamdown" unicode="&#xa1;" horiz-adv-x="254" 
d="M77 1433v0q32 0 54.5 -22.5t22.5 -54.5t-22.5 -55t-54.5 -23t-54.5 23t-22.5 55t22.5 54.5t54.5 22.5zM16 -2v0v1135h112v-1135h-112z" />
    <glyph glyph-name="cent" unicode="&#xa2;" horiz-adv-x="989" 
d="M797 440v0l92 -65q-160 -204 -393 -204q-25 0 -51 2q-80 9 -152 43l-115 -240l-101 48l120 251q-41 33 -75 74q-122 156 -104 353q24 197 176 323q156 122 353 104q28 -3 54 -9l162 337l101 -48l-156 -327q94 -46 162 -129l-88 -71q-51 64 -123 99l-317 -664
q54 -25 115 -32q212 -15 340 155zM210 420v0q17 -22 37 -40l304 635q-3 0 -6 1q-5 0 -10 1q-151 14 -270 -80q-117 -96 -135 -247q-14 -151 80 -270z" />
    <glyph glyph-name="sterling" unicode="&#xa3;" horiz-adv-x="1012" 
d="M315 166v0h597v-112h-890l114 98q189 163 215 255t-33 172h-318v113h243q-96 122 -97 345q16 181 130.5 264.5t252.5 78.5q142 -4 253 -91t111 -250h-112q0 114 -79 170t-176 58q-93 4 -174.5 -49.5t-93.5 -186.5q-4 -112 32.5 -191t84.5 -145l2 -2q0 -1 1 -1l297 -1
v-112h-231q43 -86 20.5 -184t-149.5 -229z" />
    <glyph glyph-name="yen" unicode="&#xa5;" horiz-adv-x="1255" 
d="M915 461v0h-286v-110h286v-112h-286v-183h-103v183h-286v113l286 -1v110h-286v112h286v122l-526 682h131l446 -580l447 580h131l-526 -682v-122h286v-112z" />
    <glyph glyph-name="section" unicode="&#xa7;" horiz-adv-x="586" 
d="M429 582v0q-25 -24 -55 -37q-22 -10 -45 -15l30 -18q24 -16 47 -37q23 -22 39 -55q8 -17 11 -35l2 -18v-5v-12q-1 -34 -15 -66q-32 -66 -93 -92q-58 -26 -118 -25q-60 -1 -117 22q-43 17 -78 52l66 52q18 -16 43 -27q87 -33 169 1q38 18 53 51q7 16 8 35v6v4q0 4 -1 7
q-1 8 -5 15q-15 31 -56 57q-40 25 -87 48q-7 4 -15 8q-72 33 -132 84q-80 76 -49 181q13 34 39 59q25 24 54 37q22 10 45 15q-15 8 -30 18q-24 16 -46 37q-24 22 -40 55q-7 17 -11 35l-2 18v5v12q1 34 15 66q33 66 94 92q57 26 117 25q60 1 117 -22q43 -17 78 -52l-65 -52
q-19 16 -44 27q-86 33 -169 -1q-38 -18 -53 -51q-7 -16 -8 -35v-6q1 -2 1 -4v-7q2 -8 5 -15q15 -31 57 -57q39 -26 86 -49q8 -3 16 -7q77 -35 139 -90q30 -30 44 -69q16 -54 -3 -106q-13 -34 -38 -59zM340 621v0q38 18 50 49q6 16 4 35q0 16 -9 30q-13 21 -40 40q-8 5 -17 8
q-88 33 -170 0q-38 -18 -50 -49q-5 -16 -4 -35q1 -16 9 -30q14 -21 40 -40q8 -5 17 -8q88 -33 170 0z" />
    <glyph glyph-name="copyright" unicode="&#xa9;" horiz-adv-x="792" 
d="M346 1433v0q143 0 244.5 -101.5t101.5 -245.5q0 -143 -101.5 -244.5t-244.5 -101.5t-244.5 101.5t-101.5 244.5q0 144 101.5 245.5t244.5 101.5zM346 808v0q115 0 197 81.5t82 196.5q0 116 -82 197.5t-197 81.5t-197 -81.5t-82 -197.5q0 -115 82 -196.5t197 -81.5z
M339 927v0q92 -7 148 67l41 -28q-70 -89 -172 -89q-11 0 -22 1q-86 10 -141 77q-54 68 -46 154q10 85 77 141q68 53 154 45q86 -10 141 -77l-38 -31q-42 51 -108 59q-66 6 -118 -35q-51 -42 -59 -108q-6 -66 35 -118q42 -51 108 -58z" />
    <glyph glyph-name="ordfeminine" unicode="&#xaa;" horiz-adv-x="541" 
d="M441 1213v0v-15v-1v0v-204h-52v78q-67 -78 -168 -78q-91 0 -156 64.5t-65 155.5q0 92 65 156.5t156 64.5t155.5 -64.5t64.5 -156.5zM221 1045v0q70 0 119.5 49.5t49.5 118.5q0 70 -49.5 119.5t-119.5 49.5t-119.5 -49.5t-49.5 -119.5q0 -69 49.5 -118.5t119.5 -49.5z" />
    <glyph glyph-name="guillemotleft" unicode="&#xab;" horiz-adv-x="991" 
d="M583 990v0l-449 -285l449 -285l-60 -95l-523 333v95l523 332zM891 990v0l-448 -285l448 -285l-60 -95l-523 333l-80 47l80 48l523 332z" />
    <glyph glyph-name="registered" unicode="&#xae;" horiz-adv-x="643" 
d="M271 1433v0q112 0 192 -80t80 -192t-80 -191.5t-192 -79.5t-191.5 79.5t-79.5 191.5t79.5 192t191.5 80zM271 957v0q85 0 144.5 60t59.5 144t-59.5 144t-144.5 60q-84 0 -144 -60t-60 -144t60 -144t144 -60zM299 1146v0h-9l101 -136h-30l-101 136h-49v-136h-23v302h23v0
h50h25h13q7 0 15 -1q29 -6 49 -29q10 -11 15 -24q5 -14 5 -29q0 -31 -20 -54q-20 -22 -50 -28q-7 -1 -14 -1zM261 1167v0h25h13q5 0 11 1q22 4 37 21t15 40q0 22 -15 40q-15 16 -37 21q-6 1 -11 1h-13h-25h-50v-124h50z" />
    <glyph glyph-name="macron" unicode="&#xaf;" horiz-adv-x="832" 
d="M0 1322v112h732v-112v0h-732z" />
    <glyph glyph-name="twosuperior" unicode="&#xb2;" horiz-adv-x="372" 
d="M1 979l-1 18q0 61 35 96t81 61q47 27 80.5 62t30.5 97q-5 44 -32.5 63.5t-61.5 17.5q-33 -1 -59 -20t-26 -58h-39q0 55 37.5 85t84.5 32t87 -26.5t47 -90.5q4 -79 -36.5 -122.5t-91.5 -71.5q-37 -22 -64 -46t-33 -59h232v-38v0h-271z" />
    <glyph glyph-name="threesuperior" unicode="&#xb3;" horiz-adv-x="384" 
d="M243 1202v0q41 -40 36 -109q-7 -59 -49 -86t-91 -27h-6q-52 2 -92.5 31t-40.5 81h38q0 -36 30 -54t66 -20q39 -1 70.5 17.5t36.5 60.5q4 51 -25 78q-33 28 -76 32h-11h-17h-16h-8v38h9h18h17.5h8.5q36 2 64 24q22 20 18 61q-4 34 -32.5 49t-63.5 14q-33 -2 -59 -16.5
t-26 -43.5h-39q0 48 38 72t84 26q48 2 89 -21.5t48 -76.5q4 -59 -31 -92q-10 -9 -21 -15q18 -9 33 -23z" />
    <glyph glyph-name="acute" unicode="&#xb4;" horiz-adv-x="334" 
d="M68 102l288 207l66 -98l-302 -188z" />
    <glyph glyph-name="onesuperior" unicode="&#xb9;" horiz-adv-x="205" 
d="M67 1433v0h38v-454h-38v392l-42 -34l-25 30l67 53v13z" />
    <glyph glyph-name="ordmasculine" unicode="&#xba;" horiz-adv-x="454" 
d="M177 993q-75 0 -126 63.5t-51 155.5t51 155t126 63t126 -63t51 -155t-51 -155.5t-126 -63.5zM177 1393q-54 0 -93 -54t-39 -127q0 -74 39 -128t93 -54t93 54t39 128q0 73 -39 127t-93 54z" />
    <glyph glyph-name="guillemotright" unicode="&#xbb;" horiz-adv-x="992" 
d="M892 753v0v-95l-523 -333l-61 95l449 285l-449 285l61 95zM664 705v0l-80 -47l-523 -333l-61 95l449 285l-449 285l60 95l524 -332z" />
    <glyph glyph-name="questiondown" unicode="&#xbf;" horiz-adv-x="823" 
d="M611 330v0h112q0 -157 -111 -241.5t-248 -87.5h-7q-126 0 -235 81t-121 252q-1 155 62.5 253t142.5 171q74 70 126.5 146.5t52.5 201.5h113q0 -159 -67 -256.5t-146 -170.5q-73 -70 -123 -146.5t-49 -194.5q9 -125 85 -176t164 -48q97 1 173 56t76 160zM446 1277v0
q-32 0 -55 22.5t-23 54.5t23 54.5t55 22.5t54.5 -22.5t22.5 -54.5t-22.5 -54.5t-54.5 -22.5z" />
    <glyph glyph-name="Agrave" unicode="&#xc0;" horiz-adv-x="1408" 
d="M1186 0v0l-187 453h-690l-187 -453h-122l593 1434h61h61l593 -1434h-122zM356 565v0h596l-298 722zM413 1687l66 98l288 -207l-52 -79z" />
    <glyph glyph-name="Aacute" unicode="&#xc1;" horiz-adv-x="1408" 
d="M1186 0v0l-187 453h-690l-187 -453h-122l593 1434h61h61l593 -1434h-122zM356 565v0h596l-298 722zM542 1578l288 207l66 -98l-302 -188z" />
    <glyph glyph-name="Acircumflex" unicode="&#xc2;" horiz-adv-x="1408" 
d="M1186 0v0l-187 453h-690l-187 -453h-122l593 1434h61h61l593 -1434h-122zM356 565v0h596l-298 722zM655 1779l269 -209l-46 -66l-224 139l-224 -139l-46 66z" />
    <glyph glyph-name="Atilde" unicode="&#xc3;" horiz-adv-x="1408" 
d="M1186 0v0l-187 453h-690l-187 -453h-122l593 1434h61h61l593 -1434h-122zM356 565v0h596l-298 722zM414 1632q34 59 67 83.5t73 24.5q30 0 58 -9.5t53.5 -22t47.5 -22t39 -9.5q20 0 38.5 15t37.5 51l65 -52q-22 -52 -62 -81.5t-84 -29.5q-25 0 -50.5 9.5t-51 21t-49.5 21
t-47 9.5q-20 0 -36.5 -13.5t-31.5 -49.5z" />
    <glyph glyph-name="Adieresis" unicode="&#xc4;" horiz-adv-x="1407" 
d="M714 1433v0l593 -1433h-121l-188 453h-689l-188 -453h-121l593 1433h61h60zM355 565v0h597l-298 721zM550 1456v0q-32 0 -54.5 22.5t-22.5 54.5t22.5 55t54.5 23t55 -23t23 -55t-23 -54.5t-55 -22.5zM728 1456v0q-32 0 -54.5 22.5t-22.5 54.5t22.5 55t54.5 23t55 -23
t23 -55t-23 -54.5t-55 -22.5z" />
    <glyph glyph-name="Aring" unicode="&#xc5;" horiz-adv-x="1407" 
d="M714 1433v0l593 -1433h-121l-188 453h-689l-188 -453h-121l593 1433h25q-46 12 -75 48.5t-29 84.5q0 56 40 96t97 40q56 0 96.5 -40t40.5 -96q0 -48 -29 -84.5t-75 -48.5h30zM559 1566v0q0 -38 27 -65t65 -27t65 27t27 65t-27 64.5t-65 26.5t-65 -26.5t-27 -64.5z
M355 565v0h597l-299 721z" />
    <glyph glyph-name="AE" unicode="&#xc6;" horiz-adv-x="1547" 
d="M1447 1321v0h-727v-522h614v-108h-614v-579h727v-112h-727h-98h-15v453h-298l-188 -453h-121l593 1433h29v0h825v-112zM355 565v0h252v611z" />
    <glyph glyph-name="Ccedilla" unicode="&#xc7;" horiz-adv-x="1440" 
d="M1340 374v0q-196 -334 -580 -370l-11 -35q54 -86 6 -176q-38 -75 -135 -75q-27 0 -58 9l25 86q63 -17 91 26q11 18 9.5 43t-21.5 47l-19 20l19 55q-285 26 -471.5 223t-194.5 486q6 303 206.5 505.5t503.5 212.5q295 -3 506 -207l-79 -80q-184 174 -423 174h-3
q-256 -7 -425 -178t-174 -426q8 -255 181 -427t421 -172h3q347 13 525 313z" />
    <glyph glyph-name="Egrave" unicode="&#xc8;" horiz-adv-x="946" 
d="M840 1321v0h-727v-522h614v-108h-614v-579h727v-112h-727h-98h-15v1434h15v0h825v-113zM175 1687l66 98l288 -207l-52 -79z" />
    <glyph glyph-name="Eacute" unicode="&#xc9;" horiz-adv-x="946" 
d="M840 1321v0h-727v-522h614v-108h-614v-579h727v-112h-727h-98h-15v1434h15v0h825v-113zM304 1578l288 207l66 -98l-302 -188z" />
    <glyph glyph-name="Ecircumflex" unicode="&#xca;" horiz-adv-x="946" 
d="M840 1321v0h-727v-522h614v-108h-614v-579h727v-112h-727h-98h-15v1434h15v0h825v-113zM417 1779l269 -209l-46 -66l-224 139l-224 -139l-46 66z" />
    <glyph glyph-name="Edieresis" unicode="&#xcb;" horiz-adv-x="940" 
d="M840 1321v0h-728v-522h615v-108h-615v-579h728v-112h-728h-97h-15v1433h15v0h825v-112zM329 1463v0q-32 0 -55 23t-23 55t23 54.5t55 22.5t54.5 -22.5t22.5 -54.5t-22.5 -55t-54.5 -23zM507 1463v0q-32 0 -55 23t-23 55t23 54.5t55 22.5t54.5 -22.5t22.5 -54.5t-22.5 -55
t-54.5 -23z" />
    <glyph glyph-name="Igrave" unicode="&#xcc;" horiz-adv-x="263" 
d="M0 0v1434h113v-1434h-113zM-186 1687l66 98l288 -207l-52 -79z" />
    <glyph glyph-name="Iacute" unicode="&#xcd;" horiz-adv-x="263" 
d="M0 0v1434h113v-1434h-113zM-57 1578l288 207l66 -98l-302 -188z" />
    <glyph glyph-name="Icircumflex" unicode="&#xce;" horiz-adv-x="517" 
d="M156 0v0v1433h112v-1433h-112zM209 1647v0l208 -147l-52 -74l-157 111l-157 -111l-51 74l208 147v1v-1l1 1v-1z" />
    <glyph glyph-name="Idieresis" unicode="&#xcf;" horiz-adv-x="433" 
d="M103 0v0v1433h112v-1433h-112zM155 1527v0q0 -32 -23 -55t-55 -23t-54.5 23t-22.5 55t22.5 54.5t54.5 22.5t55 -22.5t23 -54.5zM255 1604v0q32 0 55 -22.5t23 -54.5t-23 -55t-55 -23t-54.5 23t-22.5 55t22.5 54.5t54.5 22.5z" />
    <glyph glyph-name="Ntilde" unicode="&#xd1;" horiz-adv-x="1197" 
d="M984 1435v0h113v-1434h-61h-68l-856 1242v-1242h-112v1434h48h69l867 -1260v1260zM566 1499v0q-45 -33 -117 -33q-56 0 -132 45l49 75q54 -34 89.5 -30t71.5 24q41 25 100.5 32.5t141.5 -49.5l-53 -72q-48 35 -80.5 32t-69.5 -24z" />
    <glyph glyph-name="Ograve" unicode="&#xd2;" 
d="M715 2q-296 0 -505.5 209.5t-209.5 504.5q0 296 209.5 505.5t505.5 209.5q295 0 504.5 -209.5t209.5 -505.5q0 -295 -209.5 -504.5t-504.5 -209.5zM715 1319q-249 0 -425.5 -177t-176.5 -426t176.5 -425.5t425.5 -176.5t425.5 176.5t176.5 425.5t-176.5 426t-425.5 177z
M474 1687l66 98l288 -207l-52 -79z" />
    <glyph glyph-name="Oacute" unicode="&#xd3;" 
d="M715 2q-296 0 -505.5 209.5t-209.5 504.5q0 296 209.5 505.5t505.5 209.5q295 0 504.5 -209.5t209.5 -505.5q0 -295 -209.5 -504.5t-504.5 -209.5zM715 1319q-249 0 -425.5 -177t-176.5 -426t176.5 -425.5t425.5 -176.5t425.5 176.5t176.5 425.5t-176.5 426t-425.5 177z
M603 1578l288 207l66 -98l-302 -188z" />
    <glyph glyph-name="Ocircumflex" unicode="&#xd4;" 
d="M715 2q-296 0 -505.5 209.5t-209.5 504.5q0 296 209.5 505.5t505.5 209.5q295 0 504.5 -209.5t209.5 -505.5q0 -295 -209.5 -504.5t-504.5 -209.5zM715 1319q-249 0 -425.5 -177t-176.5 -426t176.5 -425.5t425.5 -176.5t425.5 176.5t176.5 425.5t-176.5 426t-425.5 177z
M716 1779l269 -209l-46 -66l-224 139l-224 -139l-46 66z" />
    <glyph glyph-name="Otilde" unicode="&#xd5;" 
d="M715 2q-296 0 -505.5 209.5t-209.5 504.5q0 296 209.5 505.5t505.5 209.5q295 0 504.5 -209.5t209.5 -505.5q0 -295 -209.5 -504.5t-504.5 -209.5zM715 1319q-249 0 -425.5 -177t-176.5 -426t176.5 -425.5t425.5 -176.5t425.5 176.5t176.5 425.5t-176.5 426t-425.5 177z
M475 1632q34 59 67 83.5t73 24.5q30 0 58 -9.5t53.5 -22t47.5 -22t39 -9.5q20 0 38.5 15t37.5 51l65 -52q-22 -52 -62 -81.5t-84 -29.5q-25 0 -50.5 9.5t-51 21t-49.5 21t-47 9.5q-20 0 -36.5 -13.5t-31.5 -49.5z" />
    <glyph glyph-name="Odieresis" unicode="&#xd6;" 
d="M714 1429v0q296 0 505.5 -209.5t209.5 -505.5q0 -295 -209.5 -504.5t-505.5 -209.5q-295 0 -504.5 209.5t-209.5 504.5q0 296 209.5 505.5t504.5 209.5zM714 112v0q249 0 425.5 176.5t176.5 425.5t-176.5 425.5t-425.5 176.5q-248 0 -425 -176.5t-177 -425.5t177 -425.5
t425 -176.5zM628 1448v0q-32 0 -54.5 22.5t-22.5 54.5q0 33 22.5 55.5t54.5 22.5q33 0 55.5 -22.5t22.5 -55.5q0 -32 -22.5 -54.5t-55.5 -22.5zM807 1448v0q-32 0 -55 22.5t-23 54.5q0 33 23 55.5t55 22.5t54.5 -22.5t22.5 -55.5q0 -32 -22.5 -54.5t-54.5 -22.5z" />
    <glyph glyph-name="multiply" unicode="&#xd7;" horiz-adv-x="667" 
d="M567 407v0l-78 -80l-204 198l-198 -204l-81 78l198 204l-204 198l78 81l204 -198l199 204l80 -78l-198 -204z" />
    <glyph glyph-name="Oslash" unicode="&#xd8;" 
d="M1178 1257v0q251 -217 251 -543q0 -295 -209.5 -504.5t-504.5 -209.5q-207 0 -375 107l-97 -134l-73 53l96 133q-266 219 -266 555q0 296 209.5 505.5t505.5 209.5q216 0 391 -118l119 163l73 -52zM113 714v0q0 -280 219 -465l708 971q-146 96 -325 96
q-249 0 -425.5 -176.5t-176.5 -425.5zM715 112v0q249 0 425.5 176.5t176.5 425.5q0 270 -205 452l-706 -968q139 -86 309 -86z" />
    <glyph glyph-name="Ugrave" unicode="&#xd9;" horiz-adv-x="1214" 
d="M532 2q-220 0 -373 146t-159 361v922h112v-922q5 -168 126 -281.5t294 -113.5t294 113.5t126 281.5v922h112v-922q-6 -215 -159 -361t-373 -146zM291 1687l66 98l288 -207l-52 -79z" />
    <glyph glyph-name="Uacute" unicode="&#xda;" horiz-adv-x="1214" 
d="M532 2q-220 0 -373 146t-159 361v922h112v-922q5 -168 126 -281.5t294 -113.5t294 113.5t126 281.5v922h112v-922q-6 -215 -159 -361t-373 -146zM420 1578l288 207l66 -98l-302 -188z" />
    <glyph glyph-name="Ucircumflex" unicode="&#xdb;" horiz-adv-x="1164" 
d="M951 1428v0h113v-921q-6 -215 -159.5 -361t-372.5 -146q-220 0 -373 146t-159 361v921h112v-921q5 -167 125.5 -281t294.5 -114q173 0 294 113.5t125 281.5v921zM514 1525v0l-158 -111l-51 73l208 148v0h1v0v0l208 -148l-51 -73z" />
    <glyph glyph-name="Udieresis" unicode="&#xdc;" horiz-adv-x="1165" 
d="M952 1428v0h113v-921q-7 -215 -160 -361t-372 -146q-220 0 -373.5 146t-159.5 361v921h113v-921q4 -167 125 -281t295 -114q173 0 294 113.5t125 281.5v921zM420 1437v0q-32 0 -55 22.5t-23 55.5q0 32 23 54.5t55 22.5t54.5 -22.5t22.5 -54.5q0 -33 -22.5 -55.5
t-54.5 -22.5zM598 1437v0q-32 0 -55 22.5t-23 55.5q0 32 23 54.5t55 22.5t54.5 -22.5t22.5 -54.5q0 -33 -22.5 -55.5t-54.5 -22.5z" />
    <glyph glyph-name="Yacute" unicode="&#xdd;" horiz-adv-x="1354" 
d="M1254 1434l-571 -741v-694h-112v694l-571 741h142l485 -630l485 630h142zM515 1578l288 207l66 -98l-302 -188z" />
    <glyph glyph-name="agrave" unicode="&#xe0;" horiz-adv-x="1111" 
d="M961 480q0 -17 -2 -34v0v0v-1v0v0v0v0v-1v0v-444h-112v171q-146 -171 -367 -171q-198 0 -339 141t-141 339q0 199 141 340t339 141q199 0 340 -141t141 -340zM480 113q153 0 260.5 107.5t107.5 259.5q0 153 -107.5 260.5t-260.5 107.5q-152 0 -260 -107.5t-108 -260.5
q0 -152 108 -259.5t260 -107.5zM239 1211l66 98l288 -207l-52 -79z" />
    <glyph glyph-name="aacute" unicode="&#xe1;" horiz-adv-x="1111" 
d="M961 480q0 -17 -2 -34v0v0v-1v0v0v0v0v-1v0v-444h-112v171q-146 -171 -367 -171q-198 0 -339 141t-141 339q0 199 141 340t339 141q199 0 340 -141t141 -340zM480 113q153 0 260.5 107.5t107.5 259.5q0 153 -107.5 260.5t-260.5 107.5q-152 0 -260 -107.5t-108 -260.5
q0 -152 108 -259.5t260 -107.5zM368 1102l288 207l66 -98l-302 -188z" />
    <glyph glyph-name="acircumflex" unicode="&#xe2;" horiz-adv-x="1111" 
d="M961 480q0 -17 -2 -34v0v0v-1v0v0v0v0v-1v0v-444h-112v171q-146 -171 -367 -171q-198 0 -339 141t-141 339q0 199 141 340t339 141q199 0 340 -141t141 -340zM480 113q153 0 260.5 107.5t107.5 259.5q0 153 -107.5 260.5t-260.5 107.5q-152 0 -260 -107.5t-108 -260.5
q0 -152 108 -259.5t260 -107.5zM481 1303l269 -209l-46 -66l-224 139l-224 -139l-46 66z" />
    <glyph glyph-name="atilde" unicode="&#xe3;" horiz-adv-x="1111" 
d="M961 480q0 -17 -2 -34v0v0v-1v0v0v0v0v-1v0v-444h-112v171q-146 -171 -367 -171q-198 0 -339 141t-141 339q0 199 141 340t339 141q199 0 340 -141t141 -340zM480 113q153 0 260.5 107.5t107.5 259.5q0 153 -107.5 260.5t-260.5 107.5q-152 0 -260 -107.5t-108 -260.5
q0 -152 108 -259.5t260 -107.5zM240 1156q34 59 67 83.5t73 24.5q30 0 58 -9.5t53.5 -22t47.5 -22t39 -9.5q20 0 38.5 15t37.5 51l65 -52q-22 -52 -62 -81.5t-84 -29.5q-25 0 -50.5 9.5t-51 21t-49.5 21t-47 9.5q-20 0 -36.5 -13.5t-31.5 -49.5z" />
    <glyph glyph-name="adieresis" unicode="&#xe4;" horiz-adv-x="1064" 
d="M964 482v0q0 -18 -1 -35l-1 -1h1v-446h-113v171q-147 -171 -368 -171q-200 0 -341 141t-141 341q0 199 141 340.5t341 141.5q199 0 340.5 -141.5t141.5 -340.5zM482 112v0q153 0 261.5 108.5t108.5 261.5t-108.5 261.5t-261.5 108.5t-261.5 -108.5t-108.5 -261.5
t108.5 -261.5t261.5 -108.5zM394 986v0q-32 0 -54.5 22.5t-22.5 55.5q0 32 22.5 54.5t54.5 22.5q33 0 55.5 -22.5t22.5 -54.5q0 -33 -22.5 -55.5t-55.5 -22.5zM573 986v0q-32 0 -54.5 22.5t-22.5 55.5q0 32 22.5 54.5t54.5 22.5q33 0 55.5 -22.5t22.5 -54.5
q0 -33 -22.5 -55.5t-55.5 -22.5z" />
    <glyph glyph-name="aring" unicode="&#xe5;" horiz-adv-x="1065" 
d="M965 482v0q0 -18 -2 -35v-1v0v-446h-113v171q-146 -171 -368 -171q-199 0 -340.5 141t-141.5 341q0 193 131.5 330t327.5 151q-46 12 -75.5 48.5t-29.5 84.5q0 57 40.5 97t96.5 40q57 0 97.5 -40t40.5 -97q0 -49 -30.5 -85.5t-77.5 -48.5q191 -19 317.5 -154.5
t126.5 -325.5zM399 1096v0q0 -38 27 -65t65 -27q39 0 66 27t27 65t-27 65t-66 27q-38 0 -65 -27t-27 -65zM482 112v0q153 0 261.5 108.5t108.5 261.5t-108.5 261.5t-261.5 108.5t-261 -108.5t-108 -261.5t108 -261.5t261 -108.5z" />
    <glyph glyph-name="ae" unicode="&#xe6;" horiz-adv-x="1843" 
d="M1296 114v0q213 -16 341 155l93 -65q-161 -205 -395 -205q-26 0 -51 3q-194 23 -320 172v-174h-113v171q-147 -171 -368 -171q-200 0 -341.5 141t-141.5 341q0 199 141.5 340.5t341.5 141.5q276 0 426 -257q155 270 477 254q197 -23 324 -177l33 -40l-608 -574
q73 -46 161 -56zM483 112v0q153 0 261 108.5t108 261.5t-108 261.5t-261 108.5t-261.5 -108.5t-108.5 -261.5t108.5 -261.5t261.5 -108.5zM1047 249v0q2 -2 3 -4l537 507q-90 83 -213 97q-20 2 -40 2q-139 0 -243.5 -92.5t-123.5 -237.5q-14 -152 80 -272z" />
    <glyph glyph-name="ccedilla" unicode="&#xe7;" horiz-adv-x="994" 
d="M894 204v0q-142 -191 -377 -204l-11 -34q54 -87 6 -177q-38 -75 -136 -75q-26 0 -57 8l25 87q63 -17 90 26q11 18 10 43t-21 48l-20 19l21 61q-182 29 -301 172q-123 157 -104 355q23 197 177 324q156 123 354 104q197 -23 324 -177l-88 -70q-97 117 -248 135
q-152 14 -271 -80q-118 -97 -136 -248q-14 -152 80 -272q97 -117 249 -135q213 -16 341 155z" />
    <glyph glyph-name="egrave" unicode="&#xe8;" horiz-adv-x="1003" 
d="M496 0q-25 0 -50 3q-197 23 -323 176q-107 134 -107 300q0 26 3 52q27 202 167.5 315.5t313.5 113.5q23 0 47 -2q197 -23 323 -176l33 -40l-605 -571q72 -47 159 -56q18 -1 36 -1q188 0 305 155l92 -64q-161 -205 -394 -205zM496 849q-139 0 -243 -92.5t-122 -237.5
q-2 -21 -2 -41q0 -126 81 -229q2 -2 3 -4l535 505q-90 82 -213 96q-19 3 -39 3zM255 1211l66 98l288 -207l-52 -79z" />
    <glyph glyph-name="eacute" unicode="&#xe9;" horiz-adv-x="1003" 
d="M496 0q-25 0 -50 3q-197 23 -323 176q-107 134 -107 300q0 26 3 52q27 202 167.5 315.5t313.5 113.5q23 0 47 -2q197 -23 323 -176l33 -40l-605 -571q72 -47 159 -56q18 -1 36 -1q188 0 305 155l92 -64q-161 -205 -394 -205zM496 849q-139 0 -243 -92.5t-122 -237.5
q-2 -21 -2 -41q0 -126 81 -229q2 -2 3 -4l535 505q-90 82 -213 96q-19 3 -39 3zM384 1102l288 207l66 -98l-302 -188z" />
    <glyph glyph-name="ecircumflex" unicode="&#xea;" horiz-adv-x="1003" 
d="M496 0q-25 0 -50 3q-197 23 -323 176q-107 134 -107 300q0 26 3 52q27 202 167.5 315.5t313.5 113.5q23 0 47 -2q197 -23 323 -176l33 -40l-605 -571q72 -47 159 -56q18 -1 36 -1q188 0 305 155l92 -64q-161 -205 -394 -205zM496 849q-139 0 -243 -92.5t-122 -237.5
q-2 -21 -2 -41q0 -126 81 -229q2 -2 3 -4l535 505q-90 82 -213 96q-19 3 -39 3zM497 1303l269 -209l-46 -66l-224 139l-224 -139l-46 66z" />
    <glyph glyph-name="edieresis" unicode="&#xeb;" horiz-adv-x="1006" 
d="M459 114v0q213 -16 342 155l92 -65q-161 -205 -395 -205q-25 0 -51 3q-197 23 -324 176q-123 157 -104 355q27 203 176.5 324t353.5 104q198 -23 325 -177l32 -40l-607 -574q72 -46 160 -56zM211 249v0q1 -2 3 -4l537 507q-90 83 -214 97q-19 2 -39 2q-140 0 -244 -92.5
t-123 -237.5q-15 -152 80 -272zM422 981v0q-32 0 -55 23t-23 55t23 55t55 23t54.5 -23t22.5 -55t-22.5 -55t-54.5 -23zM601 981v0q-33 0 -55.5 23t-22.5 55t22.5 55t55.5 23q32 0 54.5 -23t22.5 -55t-22.5 -55t-54.5 -23z" />
    <glyph glyph-name="igrave" unicode="&#xec;" horiz-adv-x="304" 
d="M21 0v0v962h112v-962h-112zM-164 1211l66 98l288 -207l-52 -79z" />
    <glyph glyph-name="iacute" unicode="&#xed;" horiz-adv-x="304" 
d="M21 0v0v962h112v-962h-112zM-35 1102l288 207l66 -98l-302 -188z" />
    <glyph glyph-name="icircumflex" unicode="&#xee;" horiz-adv-x="519" 
d="M163 -1v0v966h113v-966h-113zM211 1207v0l208 -148l-52 -74l-157 112l-158 -112l-52 74l209 148v1l1 -1v1z" />
    <glyph glyph-name="idieresis" unicode="&#xef;" horiz-adv-x="434" 
d="M110 -1v0v966h113v-966h-113zM155 1077v0q0 -32 -23 -55t-55 -23t-54.5 23t-22.5 55t22.5 55t54.5 23t55 -23t23 -55zM256 1155v0q32 0 55 -23t23 -55t-23 -55t-55 -23t-55 23t-23 55t23 55t55 23z" />
    <glyph glyph-name="ntilde" unicode="&#xf1;" horiz-adv-x="1018" 
d="M918 507v0v-75.5v-174.5v-174.5v-83.5h-113v75.5v174.5v174.5v83.5q-4 146 -103.5 245.5t-242.5 99.5t-242.5 -99.5t-103.5 -245.5v-75v-178v-171.5v-83.5h-113v76v178v170.5v83.5q6 194 138 326t321 132q190 0 322 -132t137 -326zM449 1037v0q-46 -34 -118 -34
q-56 0 -133 45l50 76q54 -35 89.5 -30.5t71.5 24.5q42 25 101.5 32.5t142.5 -49.5l-54 -73q-48 36 -80.5 33t-69.5 -24z" />
    <glyph glyph-name="ograve" unicode="&#xf2;" horiz-adv-x="1061" 
d="M480 0q-198 0 -339 141t-141 340q0 198 141 339t339 141q199 0 340 -141t141 -339q0 -199 -141 -340t-340 -141zM480 848q-152 0 -260 -107.5t-108 -259.5q0 -153 108 -260.5t260 -107.5q153 0 260.5 107.5t107.5 260.5q0 152 -107.5 259.5t-260.5 107.5zM239 1211l66 98
l288 -207l-52 -79z" />
    <glyph glyph-name="oacute" unicode="&#xf3;" horiz-adv-x="1061" 
d="M480 0q-198 0 -339 141t-141 340q0 198 141 339t339 141q199 0 340 -141t141 -339q0 -199 -141 -340t-340 -141zM480 848q-152 0 -260 -107.5t-108 -259.5q0 -153 108 -260.5t260 -107.5q153 0 260.5 107.5t107.5 260.5q0 152 -107.5 259.5t-260.5 107.5zM368 1102
l288 207l66 -98l-302 -188z" />
    <glyph glyph-name="ocircumflex" unicode="&#xf4;" horiz-adv-x="1061" 
d="M480 0q-198 0 -339 141t-141 340q0 198 141 339t339 141q199 0 340 -141t141 -339q0 -199 -141 -340t-340 -141zM480 848q-152 0 -260 -107.5t-108 -259.5q0 -153 108 -260.5t260 -107.5q153 0 260.5 107.5t107.5 260.5q0 152 -107.5 259.5t-260.5 107.5zM481 1303
l269 -209l-46 -66l-224 139l-224 -139l-46 66z" />
    <glyph glyph-name="otilde" unicode="&#xf5;" horiz-adv-x="1061" 
d="M480 0q-198 0 -339 141t-141 340q0 198 141 339t339 141q199 0 340 -141t141 -339q0 -199 -141 -340t-340 -141zM480 848q-152 0 -260 -107.5t-108 -259.5q0 -153 108 -260.5t260 -107.5q153 0 260.5 107.5t107.5 260.5q0 152 -107.5 259.5t-260.5 107.5zM240 1156
q34 59 67 83.5t73 24.5q30 0 58 -9.5t53.5 -22t47.5 -22t39 -9.5q20 0 38.5 15t37.5 51l65 -52q-22 -52 -62 -81.5t-84 -29.5q-25 0 -50.5 9.5t-51 21t-49.5 21t-47 9.5q-20 0 -36.5 -13.5t-31.5 -49.5z" />
    <glyph glyph-name="odieresis" unicode="&#xf6;" horiz-adv-x="1064" 
d="M482 966v0q200 0 341 -141.5t141 -341.5q0 -199 -141 -340.5t-341 -141.5q-199 0 -340.5 141.5t-141.5 340.5q0 200 141.5 341.5t340.5 141.5zM482 114v0q153 0 261.5 108.5t108.5 260.5q0 153 -108.5 261.5t-261.5 108.5t-261 -108.5t-108 -261.5q0 -152 108 -260.5
t261 -108.5zM393 986v0q-32 0 -54.5 23t-22.5 55t22.5 55t54.5 23t55 -23t23 -55t-23 -55t-55 -23zM572 986v0q-32 0 -55 23t-23 55t23 55t55 23t55 -23t23 -55t-23 -55t-55 -23z" />
    <glyph glyph-name="oslash" unicode="&#xf8;" horiz-adv-x="1064" 
d="M793 852v0q171 -147 171 -368q0 -200 -141.5 -341t-340.5 -141q-124 0 -228 57l-57 -83l-74 51l56 82q-179 148 -179 375q0 199 141 340.5t341 141.5q129 0 237 -62l60 88l74 -51zM112 484v0q0 -169 130 -281l413 607q-79 44 -173 44q-153 0 -261.5 -108.5t-108.5 -261.5
zM482 114v0q153 0 261.5 108.5t108.5 261.5q0 163 -123 274l-411 -605q75 -39 164 -39z" />
    <glyph glyph-name="ugrave" unicode="&#xf9;" horiz-adv-x="1013" 
d="M913 961v-3v-4v-2v-2v-5v-2v-32v-8v-24v-21v-5v-15v-5v-8v-13v-6v-58v-12v-33v-26v-6v-17v-5v-9v-13v-6v-54v-9v-26v-18v-4v-11v-3v-5v-7v-3v-20v-2v-3q-5 -194 -136.5 -325t-319.5 -131q-189 0 -320.5 131t-136.5 325v505h112v0v-1v0v-2v-2v-1v-3v-3v-2v-2v-2v-38v-4
v-10v-5v-5v-4v-5v-5v-2v-13v-5v-5v-12v-8v-6v-5v-5v-69v-6v-16v-6v-6v-6v-5v-6v-3v-14v-6v-5v-14v-8v-5v-5v-6v-60v-5v-11v-5v-5v-4v-4v-4v-2v-10v-4v-3v-9v-4v-3v-3v-3v-22v0v-2v-1q4 -146 103 -244.5t242 -98.5q142 0 241 98.5t103 244.5v3v2v1v1v2v1v2v2v40v8v6v5v9v21v5
v5v5v5v5v6v5v5v75v12v8v6v13v26v6v6v5v6v5v6v6v5v69v10v7v5v9v18v4v4v3v4v3v3v3v3v27v2v1v1h112zM216 1211l66 98l288 -207l-52 -79z" />
    <glyph glyph-name="uacute" unicode="&#xfa;" horiz-adv-x="1013" 
d="M913 961v-3v-4v-2v-2v-5v-2v-32v-8v-24v-21v-5v-15v-5v-8v-13v-6v-58v-12v-33v-26v-6v-17v-5v-9v-13v-6v-54v-9v-26v-18v-4v-11v-3v-5v-7v-3v-20v-2v-3q-5 -194 -136.5 -325t-319.5 -131q-189 0 -320.5 131t-136.5 325v505h112v0v-1v0v-2v-2v-1v-3v-3v-2v-2v-2v-38v-4
v-10v-5v-5v-4v-5v-5v-2v-13v-5v-5v-12v-8v-6v-5v-5v-69v-6v-16v-6v-6v-6v-5v-6v-3v-14v-6v-5v-14v-8v-5v-5v-6v-60v-5v-11v-5v-5v-4v-4v-4v-2v-10v-4v-3v-9v-4v-3v-3v-3v-22v0v-2v-1q4 -146 103 -244.5t242 -98.5q142 0 241 98.5t103 244.5v3v2v1v1v2v1v2v2v40v8v6v5v9v21v5
v5v5v5v5v6v5v5v75v12v8v6v13v26v6v6v5v6v5v6v6v5v69v10v7v5v9v18v4v4v3v4v3v3v3v3v27v2v1v1h112zM345 1102l288 207l66 -98l-302 -188z" />
    <glyph glyph-name="ucircumflex" unicode="&#xfb;" horiz-adv-x="1017" 
d="M804 964v0h113v-75v-174.5v-174.5v-83q-5 -195 -137 -326.5t-322 -131.5q-189 0 -321 131.5t-137 326.5v75v178v171v83h112v-75v-178v-170.5v-83.5q5 -147 104.5 -246t241.5 -99q143 0 242.5 99t103.5 246v75.5v174.5v174v83zM461 1078v0l-157 -112l-52 74l209 148v1v-1
l1 1v-1l209 -148l-52 -74z" />
    <glyph glyph-name="udieresis" unicode="&#xfc;" horiz-adv-x="1017" 
d="M804 964v0h113v-75v-174.5v-174.5v-83q-5 -195 -137 -326.5t-322 -131.5q-189 0 -321 131.5t-137 326.5v75v178v171v83h112v-75v-178v-170.5v-83.5q4 -147 104 -246t242 -99q143 0 242.5 99t103.5 246v75.5v174.5v174v83zM350 990v0q-32 0 -55 22.5t-23 54.5
q0 33 23 55.5t55 22.5t55 -22.5t23 -55.5q0 -32 -23 -54.5t-55 -22.5zM529 990v0q-32 0 -55 22.5t-23 54.5q0 33 23 55.5t55 22.5t55 -22.5t23 -55.5q0 -32 -23 -54.5t-55 -22.5z" />
    <glyph glyph-name="yacute" unicode="&#xfd;" horiz-adv-x="1187" 
d="M1087 961l-471 -916q-3 -6 -7 -11l-241 -469l-100 51l213 413q-6 7 -11 16l-470 916h126l417 -811l219 427h1l198 384h126zM432 1102l288 207l66 -98l-302 -188z" />
    <glyph glyph-name="ydieresis" unicode="&#xff;" horiz-adv-x="1192" 
d="M965 964v0h127l-474 -920q-2 -6 -6 -11l-242 -471l-100 52l213 414q-6 7 -11 16l-472 920h127l418 -815l221 430v-1zM481 984v0q-32 0 -54.5 22.5t-22.5 54.5q0 33 22.5 55.5t54.5 22.5q33 0 55.5 -22.5t22.5 -55.5q0 -32 -22.5 -54.5t-55.5 -22.5zM660 984v0
q-32 0 -54.5 22.5t-22.5 54.5q0 33 22.5 55.5t54.5 22.5q33 0 55.5 -22.5t22.5 -55.5q0 -32 -22.5 -54.5t-55.5 -22.5z" />
    <glyph glyph-name="Abreve" unicode="&#x102;" horiz-adv-x="1408" 
d="M1186 0v0l-187 453h-690l-187 -453h-122l593 1434h61h61l593 -1434h-122zM356 565v0h596l-298 722zM660 1556q-53 0 -98 19t-78 51t-52 74.5t-19 88.5h70q6 -38 22.5 -63t40 -40t52.5 -21t59 -6t59 6t52.5 21t40 40t22.5 63h70q0 -46 -18.5 -88.5t-51 -74.5t-76.5 -51
t-95 -19z" />
    <glyph glyph-name="abreve" unicode="&#x103;" horiz-adv-x="1111" 
d="M961 480q0 -17 -2 -34v0v0v-1v0v0v0v0v-1v0v-444h-112v171q-146 -171 -367 -171q-198 0 -339 141t-141 339q0 199 141 340t339 141q199 0 340 -141t141 -340zM480 113q153 0 260.5 107.5t107.5 259.5q0 153 -107.5 260.5t-260.5 107.5q-152 0 -260 -107.5t-108 -260.5
q0 -152 108 -259.5t260 -107.5zM486 1080q-53 0 -98 19t-78 51t-52 74.5t-19 88.5h70q6 -38 22.5 -63t40 -40t52.5 -21t59 -6t59 6t52.5 21t40 40t22.5 63h70q0 -46 -18.5 -88.5t-51 -74.5t-76.5 -51t-95 -19z" />
    <glyph glyph-name="Dcroat" unicode="&#x110;" horiz-adv-x="1134" 
d="M1012 891v0q22 -86 22 -174q0 -180 -86 -338q-43 -78 -103 -143q-61 -64 -134 -113q-74 -48 -157 -78t-170 -40l-32 -2q-6 -1 -12 -1q-7 -1 -14 -1h-29h-82h-102v-1h-113v1434h113v-3h100h82q14 0 29 -1h14q4 0 7 -1q19 -1 37 -3q87 -9 170 -38q83 -30 157 -78
q74 -49 134 -113q60 -65 104 -142q42 -78 65 -164zM859 427v0q74 136 74 290q-1 154 -75 289q-37 66 -88 122q-53 55 -116 97q-64 41 -136 67q-71 26 -147 34q-15 1 -29 2q-4 1 -9 1h-14q-12 1 -25 1h-81h-100v-1228h102h81h24q7 0 15 1q6 0 12 1q13 0 26 2q75 8 147 34
t135 68q64 42 116 97q51 56 88 122zM-97 650v112h732v-112v0h-732z" />
    <glyph glyph-name="dcroat" unicode="&#x111;" horiz-adv-x="1111" 
d="M959 509q0 -4 1 -8q1 -10 1 -21q0 -198 -141 -339t-340 -141q-198 0 -339 141t-141 339q0 199 141 340t339 141q221 0 367 -171v284h-259v112h259v247h112v-247h101v-112h-101v-565zM480 113q152 0 260 107.5t108 259.5v1v1v1v1v1v0v3v1v1v1v0v3h-1v15
q-15 146 -118.5 242.5t-248.5 96.5q-152 0 -260 -107.5t-108 -260.5q0 -152 108 -259.5t260 -107.5z" />
    <glyph glyph-name="Itilde" unicode="&#x128;" horiz-adv-x="263" 
d="M0 0v1434h113v-1434h-113zM-185 1632q34 59 67 83.5t73 24.5q30 0 58 -9.5t53.5 -22t47.5 -22t39 -9.5q20 0 38.5 15t37.5 51l65 -52q-22 -52 -62 -81.5t-84 -29.5q-25 0 -50.5 9.5t-51 21t-49.5 21t-47 9.5q-20 0 -36.5 -13.5t-31.5 -49.5z" />
    <glyph glyph-name="itilde" unicode="&#x129;" horiz-adv-x="304" 
d="M21 0v0v962h112v-962h-112zM-163 1156q34 59 67 83.5t73 24.5q30 0 58 -9.5t53.5 -22t47.5 -22t39 -9.5q20 0 38.5 15t37.5 51l65 -52q-22 -52 -62 -81.5t-84 -29.5q-25 0 -50.5 9.5t-51 21t-49.5 21t-47 9.5q-20 0 -36.5 -13.5t-31.5 -49.5z" />
    <glyph glyph-name="dotlessi" unicode="&#x131;" horiz-adv-x="304" 
d="M21 0v0v962h112v-962h-112z" />
    <glyph glyph-name="Utilde" unicode="&#x168;" horiz-adv-x="1214" 
d="M532 2q-220 0 -373 146t-159 361v922h112v-922q5 -168 126 -281.5t294 -113.5t294 113.5t126 281.5v922h112v-922q-6 -215 -159 -361t-373 -146zM292 1632q34 59 67 83.5t73 24.5q30 0 58 -9.5t53.5 -22t47.5 -22t39 -9.5q20 0 38.5 15t37.5 51l65 -52q-22 -52 -62 -81.5
t-84 -29.5q-25 0 -50.5 9.5t-51 21t-49.5 21t-47 9.5q-20 0 -36.5 -13.5t-31.5 -49.5z" />
    <glyph glyph-name="utilde" unicode="&#x169;" horiz-adv-x="1013" 
d="M913 961v-3v-4v-2v-2v-5v-2v-32v-8v-24v-21v-5v-15v-5v-8v-13v-6v-58v-12v-33v-26v-6v-17v-5v-9v-13v-6v-54v-9v-26v-18v-4v-11v-3v-5v-7v-3v-20v-2v-3q-5 -194 -136.5 -325t-319.5 -131q-189 0 -320.5 131t-136.5 325v505h112v0v-1v0v-2v-2v-1v-3v-3v-2v-2v-2v-38v-4
v-10v-5v-5v-4v-5v-5v-2v-13v-5v-5v-12v-8v-6v-5v-5v-69v-6v-16v-6v-6v-6v-5v-6v-3v-14v-6v-5v-14v-8v-5v-5v-6v-60v-5v-11v-5v-5v-4v-4v-4v-2v-10v-4v-3v-9v-4v-3v-3v-3v-22v0v-2v-1q4 -146 103 -244.5t242 -98.5q142 0 241 98.5t103 244.5v3v2v1v1v2v1v2v2v40v8v6v5v9v21v5
v5v5v5v5v6v5v5v75v12v8v6v13v26v6v6v5v6v5v6v6v5v69v10v7v5v9v18v4v4v3v4v3v3v3v3v27v2v1v1h112zM217 1156q34 59 67 83.5t73 24.5q30 0 58 -9.5t53.5 -22t47.5 -22t39 -9.5q20 0 38.5 15t37.5 51l65 -52q-22 -52 -62 -81.5t-84 -29.5q-25 0 -50.5 9.5t-51 21t-49.5 21
t-47 9.5q-20 0 -36.5 -13.5t-31.5 -49.5z" />
    <glyph glyph-name="Ohorn" unicode="&#x1a0;" 
d="M715 2q-296 0 -505.5 209.5t-209.5 504.5q0 296 209.5 505.5t505.5 209.5q103 0 195 -26v1q18 -2 35 -3t32 -1q68 0 107.5 18t59 50t23.5 75.5t1 95.5h99q3 -45 0.5 -93.5t-20.5 -92t-56 -77.5t-106 -49q71 -44 135 -107q209 -210 209 -506q0 -295 -209.5 -504.5
t-504.5 -209.5zM715 1319q-249 0 -425.5 -177t-176.5 -426t176.5 -425.5t425.5 -176.5t425.5 176.5t176.5 425.5t-176.5 426t-425.5 177z" />
    <glyph glyph-name="ohorn" unicode="&#x1a1;" horiz-adv-x="1061" 
d="M480 0q-198 0 -339 141t-141 340q0 198 141 339t339 141q61 0 116 -13q14 -2 25.5 -3t22.5 -1q49 0 74.5 19.5t37 48.5t12.5 62.5t1 62.5h110q0 -29 -2 -66t-15 -73t-41 -66t-81 -46q42 -28 80 -66q141 -141 141 -339q0 -199 -141 -340t-340 -141zM480 848
q-152 0 -260 -107.5t-108 -259.5q0 -153 108 -260.5t260 -107.5q153 0 260.5 107.5t107.5 260.5q0 152 -107.5 259.5t-260.5 107.5z" />
    <glyph glyph-name="Uhorn" unicode="&#x1af;" horiz-adv-x="1214" 
d="M532 2q-220 0 -373 146t-159 361v922h112v-922q5 -168 126 -281.5t294 -113.5t294 113.5t126 281.5v922h101q36 6 55.5 25.5t28 48t9 64t-1.5 73.5h100q3 -46 0 -95t-21 -90t-55.5 -70.5t-103.5 -38.5v-839q-6 -215 -159 -361t-373 -146z" />
    <glyph glyph-name="uhorn" unicode="&#x1b0;" horiz-adv-x="1013" 
d="M0 961h112v0v-1v0v-2v-2v-1v-3v-3v-2v-2v-2v-38v-4v-10v-5v-5v-4v-5v-5v-2v-13v-5v-5v-12v-8v-6v-5v-5v-69v-6v-16v-6v-6v-6v-5v-6v-3v-14v-6v-5v-14v-8v-5v-5v-6v-60v-5v-11v-5v-5v-4v-4v-4v-2v-10v-4v-3v-9v-4v-3v-3v-3v-22v0v-2v-1q4 -146 103 -244.5t242 -98.5
q142 0 241 98.5t103 244.5v3v2v1v1v2v1v2v2v40v8v6v5v9v21v5v5v5v5v5v6v5v5v75v12v8v6v13v26v6v6v5v6v5v6v6v5v69v10v7v5v9v18v4v4v3v4v3v3v3v3v27v2v1v1h24q50 2 75 18.5t35 41t10 55.5v61h110q0 -28 -2 -65t-15 -72.5t-42 -64t-83 -39.5v-17v-21v-5v-15v-5v-8v-13v-6v-58
v-12v-33v-26v-6v-17v-5v-9v-13v-6v-54v-9v-26v-18v-4v-11v-3v-5v-7v-3v-20v-2v-3q-5 -194 -136.5 -325t-319.5 -131q-189 0 -320.5 131t-136.5 325v505z" />
    <glyph glyph-name="circumflex" unicode="&#x2c6;" horiz-adv-x="702" 
d="M352 275l269 -209l-46 -66l-224 139l-224 -139l-46 66z" />
    <glyph glyph-name="breve" unicode="&#x2d8;" horiz-adv-x="500" 
d="M232 -14q-53 0 -98 19t-78 51t-52 74.5t-19 88.5h70q6 -38 22.5 -63t40 -40t52.5 -21t59 -6t59 6t52.5 21t40 40t22.5 63h70q0 -46 -18.5 -88.5t-51 -74.5t-76.5 -51t-95 -19z" />
    <glyph glyph-name="tilde" unicode="&#x2dc;" horiz-adv-x="500" 
d="M31 94q34 59 67 83.5t73 24.5q30 0 58 -9.5t53.5 -22t47.5 -22t39 -9.5q20 0 38.5 15t37.5 51l65 -52q-22 -52 -62 -81.5t-84 -29.5q-25 0 -50.5 9.5t-51 21t-49.5 21t-47 9.5q-20 0 -36.5 -13.5t-31.5 -49.5z" />
    <glyph glyph-name="uni1EA0" unicode="&#x1ea0;" horiz-adv-x="1408" 
d="M1186 0v0l-187 453h-690l-187 -453h-122l593 1434h61h61l593 -1434h-122zM356 565v0h596l-298 722zM577 -156q0 32 22.5 54t54.5 22t54 -22t22 -54t-22 -54.5t-54 -22.5t-54.5 22.5t-22.5 54.5z" />
    <glyph glyph-name="uni1EA1" unicode="&#x1ea1;" horiz-adv-x="1111" 
d="M961 480q0 -17 -2 -34v0v0v-1v0v0v0v0v-1v0v-444h-112v171q-146 -171 -367 -171q-198 0 -339 141t-141 339q0 199 141 340t339 141q199 0 340 -141t141 -340zM480 113q153 0 260.5 107.5t107.5 259.5q0 153 -107.5 260.5t-260.5 107.5q-152 0 -260 -107.5t-108 -260.5
q0 -152 108 -259.5t260 -107.5zM403 -156q0 32 22.5 54t54.5 22t54 -22t22 -54t-22 -54.5t-54 -22.5t-54.5 22.5t-22.5 54.5z" />
    <glyph glyph-name="uni1EA2" unicode="&#x1ea2;" horiz-adv-x="1408" 
d="M1186 0v0l-187 453h-690l-187 -453h-122l593 1434h61h61l593 -1434h-122zM356 565v0h596l-298 722zM543 1788q78 15 132.5 2.5t85.5 -40.5t39 -66t-9 -74.5t-58.5 -66.5t-107.5 -42l-21 61q34 10 56 25.5t31.5 33t5.5 34.5t-21.5 29.5t-49 18.5t-77.5 0q-2 23 -3 42.5
t-3 42.5z" />
    <glyph glyph-name="uni1EA3" unicode="&#x1ea3;" horiz-adv-x="1111" 
d="M961 480q0 -17 -2 -34v0v0v-1v0v0v0v0v-1v0v-444h-112v171q-146 -171 -367 -171q-198 0 -339 141t-141 339q0 199 141 340t339 141q199 0 340 -141t141 -340zM480 113q153 0 260.5 107.5t107.5 259.5q0 153 -107.5 260.5t-260.5 107.5q-152 0 -260 -107.5t-108 -260.5
q0 -152 108 -259.5t260 -107.5zM369 1312q78 15 132.5 2.5t85.5 -40.5t39 -66t-9 -74.5t-58.5 -66.5t-107.5 -42l-21 61q34 10 56 25.5t31.5 33t5.5 34.5t-21.5 29.5t-49 18.5t-77.5 0q-2 23 -3 42.5t-3 42.5z" />
    <glyph glyph-name="uni1EA4" unicode="&#x1ea4;" horiz-adv-x="1408" 
d="M1186 0v0l-187 453h-690l-187 -453h-122l593 1434h61h61l593 -1434h-122zM356 565v0h596l-298 722zM655 1779l269 -209l-46 -66l-224 139l-224 -139l-46 66zM850 1767l288 207l66 -98l-302 -188z" />
    <glyph glyph-name="uni1EA5" unicode="&#x1ea5;" horiz-adv-x="1111" 
d="M961 480q0 -17 -2 -34v0v0v-1v0v0v0v0v-1v0v-444h-112v171q-146 -171 -367 -171q-198 0 -339 141t-141 339q0 199 141 340t339 141q199 0 340 -141t141 -340zM480 113q153 0 260.5 107.5t107.5 259.5q0 153 -107.5 260.5t-260.5 107.5q-152 0 -260 -107.5t-108 -260.5
q0 -152 108 -259.5t260 -107.5zM481 1303l269 -209l-46 -66l-224 139l-224 -139l-46 66zM676 1291l288 207l66 -98l-302 -188z" />
    <glyph glyph-name="uni1EA6" unicode="&#x1ea6;" horiz-adv-x="1408" 
d="M1186 0v0l-187 453h-690l-187 -453h-122l593 1434h61h61l593 -1434h-122zM356 565v0h596l-298 722zM655 1779l269 -209l-46 -66l-224 139l-224 -139l-46 66zM677 1876l66 98l288 -207l-52 -79z" />
    <glyph glyph-name="uni1EA7" unicode="&#x1ea7;" horiz-adv-x="1111" 
d="M961 480q0 -17 -2 -34v0v0v-1v0v0v0v0v-1v0v-444h-112v171q-146 -171 -367 -171q-198 0 -339 141t-141 339q0 199 141 340t339 141q199 0 340 -141t141 -340zM480 113q153 0 260.5 107.5t107.5 259.5q0 153 -107.5 260.5t-260.5 107.5q-152 0 -260 -107.5t-108 -260.5
q0 -152 108 -259.5t260 -107.5zM481 1303l269 -209l-46 -66l-224 139l-224 -139l-46 66zM503 1400l66 98l288 -207l-52 -79z" />
    <glyph glyph-name="uni1EA8" unicode="&#x1ea8;" horiz-adv-x="1408" 
d="M1186 0v0l-187 453h-690l-187 -453h-122l593 1434h61h61l593 -1434h-122zM356 565v0h596l-298 722zM655 1779l269 -209l-46 -66l-224 139l-224 -139l-46 66zM790 1975q78 15 132.5 2.5t85.5 -40.5t39 -66t-9 -74.5t-58.5 -66.5t-107.5 -42l-21 61q34 10 56 25.5t31.5 33
t5.5 34.5t-21.5 29.5t-49 18.5t-77.5 0q-2 23 -3 42.5t-3 42.5z" />
    <glyph glyph-name="uni1EA9" unicode="&#x1ea9;" horiz-adv-x="1111" 
d="M961 480q0 -17 -2 -34v0v0v-1v0v0v0v0v-1v0v-444h-112v171q-146 -171 -367 -171q-198 0 -339 141t-141 339q0 199 141 340t339 141q199 0 340 -141t141 -340zM480 113q153 0 260.5 107.5t107.5 259.5q0 153 -107.5 260.5t-260.5 107.5q-152 0 -260 -107.5t-108 -260.5
q0 -152 108 -259.5t260 -107.5zM481 1303l269 -209l-46 -66l-224 139l-224 -139l-46 66zM616 1499q78 15 132.5 2.5t85.5 -40.5t39 -66t-9 -74.5t-58.5 -66.5t-107.5 -42l-21 61q34 10 56 25.5t31.5 33t5.5 34.5t-21.5 29.5t-49 18.5t-77.5 0q-2 23 -3 42.5t-3 42.5z" />
    <glyph glyph-name="uni1EAA" unicode="&#x1eaa;" horiz-adv-x="1408" 
d="M1186 0v0l-187 453h-690l-187 -453h-122l593 1434h61h61l593 -1434h-122zM356 565v0h596l-298 722zM655 1779l269 -209l-46 -66l-224 139l-224 -139l-46 66zM414 1869q34 59 67 83.5t73 24.5q30 0 58 -9.5t53.5 -22t47.5 -22t39 -9.5q20 0 38.5 15t37.5 51l65 -52
q-22 -52 -62 -81.5t-84 -29.5q-25 0 -50.5 9.5t-51 21t-49.5 21t-47 9.5q-20 0 -36.5 -13.5t-31.5 -49.5z" />
    <glyph glyph-name="uni1EAB" unicode="&#x1eab;" horiz-adv-x="1111" 
d="M961 480q0 -17 -2 -34v0v0v-1v0v0v0v0v-1v0v-444h-112v171q-146 -171 -367 -171q-198 0 -339 141t-141 339q0 199 141 340t339 141q199 0 340 -141t141 -340zM480 113q153 0 260.5 107.5t107.5 259.5q0 153 -107.5 260.5t-260.5 107.5q-152 0 -260 -107.5t-108 -260.5
q0 -152 108 -259.5t260 -107.5zM481 1303l269 -209l-46 -66l-224 139l-224 -139l-46 66zM240 1393q34 59 67 83.5t73 24.5q30 0 58 -9.5t53.5 -22t47.5 -22t39 -9.5q20 0 38.5 15t37.5 51l65 -52q-22 -52 -62 -81.5t-84 -29.5q-25 0 -50.5 9.5t-51 21t-49.5 21t-47 9.5
q-20 0 -36.5 -13.5t-31.5 -49.5z" />
    <glyph glyph-name="uni1EAC" unicode="&#x1eac;" horiz-adv-x="1408" 
d="M1186 0v0l-187 453h-690l-187 -453h-122l593 1434h61h61l593 -1434h-122zM356 565v0h596l-298 722zM655 1779l269 -209l-46 -66l-224 139l-224 -139l-46 66zM577 -156q0 32 22.5 54t54.5 22t54 -22t22 -54t-22 -54.5t-54 -22.5t-54.5 22.5t-22.5 54.5z" />
    <glyph glyph-name="uni1EAD" unicode="&#x1ead;" horiz-adv-x="1111" 
d="M961 480q0 -17 -2 -34v0v0v-1v0v0v0v0v-1v0v-444h-112v171q-146 -171 -367 -171q-198 0 -339 141t-141 339q0 199 141 340t339 141q199 0 340 -141t141 -340zM480 113q153 0 260.5 107.5t107.5 259.5q0 153 -107.5 260.5t-260.5 107.5q-152 0 -260 -107.5t-108 -260.5
q0 -152 108 -259.5t260 -107.5zM481 1303l269 -209l-46 -66l-224 139l-224 -139l-46 66zM403 -156q0 32 22.5 54t54.5 22t54 -22t22 -54t-22 -54.5t-54 -22.5t-54.5 22.5t-22.5 54.5z" />
    <glyph glyph-name="uni1EAE" unicode="&#x1eae;" horiz-adv-x="1408" 
d="M1186 0v0l-187 453h-690l-187 -453h-122l593 1434h61h61l593 -1434h-122zM356 565v0h596l-298 722zM660 1556q-53 0 -98 19t-78 51t-52 74.5t-19 88.5h70q6 -38 22.5 -63t40 -40t52.5 -21t59 -6t59 6t52.5 21t40 40t22.5 63h70q0 -46 -18.5 -88.5t-51 -74.5t-76.5 -51
t-95 -19zM563 1868l288 207l66 -98l-302 -188z" />
    <glyph glyph-name="uni1EAF" unicode="&#x1eaf;" horiz-adv-x="1111" 
d="M961 480q0 -17 -2 -34v0v0v-1v0v0v0v0v-1v0v-444h-112v171q-146 -171 -367 -171q-198 0 -339 141t-141 339q0 199 141 340t339 141q199 0 340 -141t141 -340zM480 113q153 0 260.5 107.5t107.5 259.5q0 153 -107.5 260.5t-260.5 107.5q-152 0 -260 -107.5t-108 -260.5
q0 -152 108 -259.5t260 -107.5zM486 1080q-53 0 -98 19t-78 51t-52 74.5t-19 88.5h70q6 -38 22.5 -63t40 -40t52.5 -21t59 -6t59 6t52.5 21t40 40t22.5 63h70q0 -46 -18.5 -88.5t-51 -74.5t-76.5 -51t-95 -19zM389 1392l288 207l66 -98l-302 -188z" />
    <glyph glyph-name="uni1EB0" unicode="&#x1eb0;" horiz-adv-x="1408" 
d="M1186 0v0l-187 453h-690l-187 -453h-122l593 1434h61h61l593 -1434h-122zM356 565v0h596l-298 722zM660 1556q-53 0 -98 19t-78 51t-52 74.5t-19 88.5h70q6 -38 22.5 -63t40 -40t52.5 -21t59 -6t59 6t52.5 21t40 40t22.5 63h70q0 -46 -18.5 -88.5t-51 -74.5t-76.5 -51
t-95 -19zM405 1971l66 98l288 -207l-52 -79z" />
    <glyph glyph-name="uni1EB1" unicode="&#x1eb1;" horiz-adv-x="1111" 
d="M961 480q0 -17 -2 -34v0v0v-1v0v0v0v0v-1v0v-444h-112v171q-146 -171 -367 -171q-198 0 -339 141t-141 339q0 199 141 340t339 141q199 0 340 -141t141 -340zM480 113q153 0 260.5 107.5t107.5 259.5q0 153 -107.5 260.5t-260.5 107.5q-152 0 -260 -107.5t-108 -260.5
q0 -152 108 -259.5t260 -107.5zM486 1080q-53 0 -98 19t-78 51t-52 74.5t-19 88.5h70q6 -38 22.5 -63t40 -40t52.5 -21t59 -6t59 6t52.5 21t40 40t22.5 63h70q0 -46 -18.5 -88.5t-51 -74.5t-76.5 -51t-95 -19zM231 1495l66 98l288 -207l-52 -79z" />
    <glyph glyph-name="uni1EB2" unicode="&#x1eb2;" horiz-adv-x="1408" 
d="M1186 0v0l-187 453h-690l-187 -453h-122l593 1434h61h61l593 -1434h-122zM356 565v0h596l-298 722zM660 1556q-53 0 -98 19t-78 51t-52 74.5t-19 88.5h70q6 -38 22.5 -63t40 -40t52.5 -21t59 -6t59 6t52.5 21t40 40t22.5 63h70q0 -46 -18.5 -88.5t-51 -74.5t-76.5 -51
t-95 -19zM549 2076q78 15 132.5 2.5t85.5 -40.5t39 -66t-9 -74.5t-58.5 -66.5t-107.5 -42l-21 61q34 10 56 25.5t31.5 33t5.5 34.5t-21.5 29.5t-49 18.5t-77.5 0q-2 23 -3 42.5t-3 42.5z" />
    <glyph glyph-name="uni1EB3" unicode="&#x1eb3;" horiz-adv-x="1111" 
d="M961 480q0 -17 -2 -34v0v0v-1v0v0v0v0v-1v0v-444h-112v171q-146 -171 -367 -171q-198 0 -339 141t-141 339q0 199 141 340t339 141q199 0 340 -141t141 -340zM480 113q153 0 260.5 107.5t107.5 259.5q0 153 -107.5 260.5t-260.5 107.5q-152 0 -260 -107.5t-108 -260.5
q0 -152 108 -259.5t260 -107.5zM486 1080q-53 0 -98 19t-78 51t-52 74.5t-19 88.5h70q6 -38 22.5 -63t40 -40t52.5 -21t59 -6t59 6t52.5 21t40 40t22.5 63h70q0 -46 -18.5 -88.5t-51 -74.5t-76.5 -51t-95 -19zM375 1600q78 15 132.5 2.5t85.5 -40.5t39 -66t-9 -74.5
t-58.5 -66.5t-107.5 -42l-21 61q34 10 56 25.5t31.5 33t5.5 34.5t-21.5 29.5t-49 18.5t-77.5 0q-2 23 -3 42.5t-3 42.5z" />
    <glyph glyph-name="uni1EB4" unicode="&#x1eb4;" horiz-adv-x="1408" 
d="M1186 0v0l-187 453h-690l-187 -453h-122l593 1434h61h61l593 -1434h-122zM356 565v0h596l-298 722zM660 1556q-53 0 -98 19t-78 51t-52 74.5t-19 88.5h70q6 -38 22.5 -63t40 -40t52.5 -21t59 -6t59 6t52.5 21t40 40t22.5 63h70q0 -46 -18.5 -88.5t-51 -74.5t-76.5 -51
t-95 -19zM417 1880q34 59 67 83.5t73 24.5q30 0 58 -9.5t53.5 -22t47.5 -22t39 -9.5q20 0 38.5 15t37.5 51l65 -52q-22 -52 -62 -81.5t-84 -29.5q-25 0 -50.5 9.5t-51 21t-49.5 21t-47 9.5q-20 0 -36.5 -13.5t-31.5 -49.5z" />
    <glyph glyph-name="uni1EB5" unicode="&#x1eb5;" horiz-adv-x="1111" 
d="M961 480q0 -17 -2 -34v0v0v-1v0v0v0v0v-1v0v-444h-112v171q-146 -171 -367 -171q-198 0 -339 141t-141 339q0 199 141 340t339 141q199 0 340 -141t141 -340zM480 113q153 0 260.5 107.5t107.5 259.5q0 153 -107.5 260.5t-260.5 107.5q-152 0 -260 -107.5t-108 -260.5
q0 -152 108 -259.5t260 -107.5zM486 1080q-53 0 -98 19t-78 51t-52 74.5t-19 88.5h70q6 -38 22.5 -63t40 -40t52.5 -21t59 -6t59 6t52.5 21t40 40t22.5 63h70q0 -46 -18.5 -88.5t-51 -74.5t-76.5 -51t-95 -19zM243 1404q34 59 67 83.5t73 24.5q30 0 58 -9.5t53.5 -22
t47.5 -22t39 -9.5q20 0 38.5 15t37.5 51l65 -52q-22 -52 -62 -81.5t-84 -29.5q-25 0 -50.5 9.5t-51 21t-49.5 21t-47 9.5q-20 0 -36.5 -13.5t-31.5 -49.5z" />
    <glyph glyph-name="uni1EB6" unicode="&#x1eb6;" horiz-adv-x="1408" 
d="M1186 0v0l-187 453h-690l-187 -453h-122l593 1434h61h61l593 -1434h-122zM356 565v0h596l-298 722zM660 1556q-53 0 -98 19t-78 51t-52 74.5t-19 88.5h70q6 -38 22.5 -63t40 -40t52.5 -21t59 -6t59 6t52.5 21t40 40t22.5 63h70q0 -46 -18.5 -88.5t-51 -74.5t-76.5 -51
t-95 -19zM577 -156q0 32 22.5 54t54.5 22t54 -22t22 -54t-22 -54.5t-54 -22.5t-54.5 22.5t-22.5 54.5z" />
    <glyph glyph-name="uni1EB7" unicode="&#x1eb7;" horiz-adv-x="1111" 
d="M961 480q0 -17 -2 -34v0v0v-1v0v0v0v0v-1v0v-444h-112v171q-146 -171 -367 -171q-198 0 -339 141t-141 339q0 199 141 340t339 141q199 0 340 -141t141 -340zM480 113q153 0 260.5 107.5t107.5 259.5q0 153 -107.5 260.5t-260.5 107.5q-152 0 -260 -107.5t-108 -260.5
q0 -152 108 -259.5t260 -107.5zM403 -156q0 32 22.5 54t54.5 22t54 -22t22 -54t-22 -54.5t-54 -22.5t-54.5 22.5t-22.5 54.5zM486 1080q-53 0 -98 19t-78 51t-52 74.5t-19 88.5h70q6 -38 22.5 -63t40 -40t52.5 -21t59 -6t59 6t52.5 21t40 40t22.5 63h70q0 -46 -18.5 -88.5
t-51 -74.5t-76.5 -51t-95 -19z" />
    <glyph glyph-name="uni1EB8" unicode="&#x1eb8;" horiz-adv-x="946" 
d="M840 1321v0h-727v-522h614v-108h-614v-579h727v-112h-727h-98h-15v1434h15v0h825v-113zM339 -156q0 32 22.5 54t54.5 22t54 -22t22 -54t-22 -54.5t-54 -22.5t-54.5 22.5t-22.5 54.5z" />
    <glyph glyph-name="uni1EB9" unicode="&#x1eb9;" horiz-adv-x="1003" 
d="M496 0q-25 0 -50 3q-197 23 -323 176q-107 134 -107 300q0 26 3 52q27 202 167.5 315.5t313.5 113.5q23 0 47 -2q197 -23 323 -176l33 -40l-605 -571q72 -47 159 -56q18 -1 36 -1q188 0 305 155l92 -64q-161 -205 -394 -205zM496 849q-139 0 -243 -92.5t-122 -237.5
q-2 -21 -2 -41q0 -126 81 -229q2 -2 3 -4l535 505q-90 82 -213 96q-19 3 -39 3zM419 -156q0 32 22.5 54t54.5 22t54 -22t22 -54t-22 -54.5t-54 -22.5t-54.5 22.5t-22.5 54.5z" />
    <glyph glyph-name="uni1EBA" unicode="&#x1eba;" horiz-adv-x="946" 
d="M840 1321v0h-727v-522h614v-108h-614v-579h727v-112h-727h-98h-15v1434h15v0h825v-113zM305 1788q78 15 132.5 2.5t85.5 -40.5t39 -66t-9 -74.5t-58.5 -66.5t-107.5 -42l-21 61q34 10 56 25.5t31.5 33t5.5 34.5t-21.5 29.5t-49 18.5t-77.5 0q-2 23 -3 42.5t-3 42.5z" />
    <glyph glyph-name="uni1EBB" unicode="&#x1ebb;" horiz-adv-x="1003" 
d="M496 0q-25 0 -50 3q-197 23 -323 176q-107 134 -107 300q0 26 3 52q27 202 167.5 315.5t313.5 113.5q23 0 47 -2q197 -23 323 -176l33 -40l-605 -571q72 -47 159 -56q18 -1 36 -1q188 0 305 155l92 -64q-161 -205 -394 -205zM496 849q-139 0 -243 -92.5t-122 -237.5
q-2 -21 -2 -41q0 -126 81 -229q2 -2 3 -4l535 505q-90 82 -213 96q-19 3 -39 3zM385 1312q78 15 132.5 2.5t85.5 -40.5t39 -66t-9 -74.5t-58.5 -66.5t-107.5 -42l-21 61q34 10 56 25.5t31.5 33t5.5 34.5t-21.5 29.5t-49 18.5t-77.5 0q-2 23 -3 42.5t-3 42.5z" />
    <glyph glyph-name="uni1EBC" unicode="&#x1ebc;" horiz-adv-x="946" 
d="M840 1321v0h-727v-522h614v-108h-614v-579h727v-112h-727h-98h-15v1434h15v0h825v-113zM176 1632q34 59 67 83.5t73 24.5q30 0 58 -9.5t53.5 -22t47.5 -22t39 -9.5q20 0 38.5 15t37.5 51l65 -52q-22 -52 -62 -81.5t-84 -29.5q-25 0 -50.5 9.5t-51 21t-49.5 21t-47 9.5
q-20 0 -36.5 -13.5t-31.5 -49.5z" />
    <glyph glyph-name="uni1EBD" unicode="&#x1ebd;" horiz-adv-x="1003" 
d="M496 0q-25 0 -50 3q-197 23 -323 176q-107 134 -107 300q0 26 3 52q27 202 167.5 315.5t313.5 113.5q23 0 47 -2q197 -23 323 -176l33 -40l-605 -571q72 -47 159 -56q18 -1 36 -1q188 0 305 155l92 -64q-161 -205 -394 -205zM496 849q-139 0 -243 -92.5t-122 -237.5
q-2 -21 -2 -41q0 -126 81 -229q2 -2 3 -4l535 505q-90 82 -213 96q-19 3 -39 3zM256 1156q34 59 67 83.5t73 24.5q30 0 58 -9.5t53.5 -22t47.5 -22t39 -9.5q20 0 38.5 15t37.5 51l65 -52q-22 -52 -62 -81.5t-84 -29.5q-25 0 -50.5 9.5t-51 21t-49.5 21t-47 9.5
q-20 0 -36.5 -13.5t-31.5 -49.5z" />
    <glyph glyph-name="uni1EBE" unicode="&#x1ebe;" horiz-adv-x="946" 
d="M840 1321v0h-727v-522h614v-108h-614v-579h727v-112h-727h-98h-15v1434h15v0h825v-113zM417 1779l269 -209l-46 -66l-224 139l-224 -139l-46 66zM612 1767l288 207l66 -98l-302 -188z" />
    <glyph glyph-name="uni1EBF" unicode="&#x1ebf;" horiz-adv-x="1003" 
d="M496 0q-25 0 -50 3q-197 23 -323 176q-107 134 -107 300q0 26 3 52q27 202 167.5 315.5t313.5 113.5q23 0 47 -2q197 -23 323 -176l33 -40l-605 -571q72 -47 159 -56q18 -1 36 -1q188 0 305 155l92 -64q-161 -205 -394 -205zM496 849q-139 0 -243 -92.5t-122 -237.5
q-2 -21 -2 -41q0 -126 81 -229q2 -2 3 -4l535 505q-90 82 -213 96q-19 3 -39 3zM497 1303l269 -209l-46 -66l-224 139l-224 -139l-46 66zM692 1291l288 207l66 -98l-302 -188z" />
    <glyph glyph-name="uni1EC0" unicode="&#x1ec0;" horiz-adv-x="946" 
d="M840 1321v0h-727v-522h614v-108h-614v-579h727v-112h-727h-98h-15v1434h15v0h825v-113zM417 1779l269 -209l-46 -66l-224 139l-224 -139l-46 66zM439 1876l66 98l288 -207l-52 -79z" />
    <glyph glyph-name="uni1EC1" unicode="&#x1ec1;" horiz-adv-x="1003" 
d="M496 0q-25 0 -50 3q-197 23 -323 176q-107 134 -107 300q0 26 3 52q27 202 167.5 315.5t313.5 113.5q23 0 47 -2q197 -23 323 -176l33 -40l-605 -571q72 -47 159 -56q18 -1 36 -1q188 0 305 155l92 -64q-161 -205 -394 -205zM496 849q-139 0 -243 -92.5t-122 -237.5
q-2 -21 -2 -41q0 -126 81 -229q2 -2 3 -4l535 505q-90 82 -213 96q-19 3 -39 3zM497 1303l269 -209l-46 -66l-224 139l-224 -139l-46 66zM519 1400l66 98l288 -207l-52 -79z" />
    <glyph glyph-name="uni1EC2" unicode="&#x1ec2;" horiz-adv-x="946" 
d="M840 1321v0h-727v-522h614v-108h-614v-579h727v-112h-727h-98h-15v1434h15v0h825v-113zM417 1779l269 -209l-46 -66l-224 139l-224 -139l-46 66zM552 1975q78 15 132.5 2.5t85.5 -40.5t39 -66t-9 -74.5t-58.5 -66.5t-107.5 -42l-21 61q34 10 56 25.5t31.5 33t5.5 34.5
t-21.5 29.5t-49 18.5t-77.5 0q-2 23 -3 42.5t-3 42.5z" />
    <glyph glyph-name="uni1EC3" unicode="&#x1ec3;" horiz-adv-x="1003" 
d="M496 0q-25 0 -50 3q-197 23 -323 176q-107 134 -107 300q0 26 3 52q27 202 167.5 315.5t313.5 113.5q23 0 47 -2q197 -23 323 -176l33 -40l-605 -571q72 -47 159 -56q18 -1 36 -1q188 0 305 155l92 -64q-161 -205 -394 -205zM496 849q-139 0 -243 -92.5t-122 -237.5
q-2 -21 -2 -41q0 -126 81 -229q2 -2 3 -4l535 505q-90 82 -213 96q-19 3 -39 3zM497 1303l269 -209l-46 -66l-224 139l-224 -139l-46 66zM632 1499q78 15 132.5 2.5t85.5 -40.5t39 -66t-9 -74.5t-58.5 -66.5t-107.5 -42l-21 61q34 10 56 25.5t31.5 33t5.5 34.5t-21.5 29.5
t-49 18.5t-77.5 0q-2 23 -3 42.5t-3 42.5z" />
    <glyph glyph-name="uni1EC4" unicode="&#x1ec4;" horiz-adv-x="946" 
d="M840 1321v0h-727v-522h614v-108h-614v-579h727v-112h-727h-98h-15v1434h15v0h825v-113zM417 1779l269 -209l-46 -66l-224 139l-224 -139l-46 66zM176 1869q34 59 67 83.5t73 24.5q30 0 58 -9.5t53.5 -22t47.5 -22t39 -9.5q20 0 38.5 15t37.5 51l65 -52q-22 -52 -62 -81.5
t-84 -29.5q-25 0 -50.5 9.5t-51 21t-49.5 21t-47 9.5q-20 0 -36.5 -13.5t-31.5 -49.5z" />
    <glyph glyph-name="uni1EC5" unicode="&#x1ec5;" horiz-adv-x="1003" 
d="M496 0q-25 0 -50 3q-197 23 -323 176q-107 134 -107 300q0 26 3 52q27 202 167.5 315.5t313.5 113.5q23 0 47 -2q197 -23 323 -176l33 -40l-605 -571q72 -47 159 -56q18 -1 36 -1q188 0 305 155l92 -64q-161 -205 -394 -205zM496 849q-139 0 -243 -92.5t-122 -237.5
q-2 -21 -2 -41q0 -126 81 -229q2 -2 3 -4l535 505q-90 82 -213 96q-19 3 -39 3zM497 1303l269 -209l-46 -66l-224 139l-224 -139l-46 66zM256 1393q34 59 67 83.5t73 24.5q30 0 58 -9.5t53.5 -22t47.5 -22t39 -9.5q20 0 38.5 15t37.5 51l65 -52q-22 -52 -62 -81.5t-84 -29.5
q-25 0 -50.5 9.5t-51 21t-49.5 21t-47 9.5q-20 0 -36.5 -13.5t-31.5 -49.5z" />
    <glyph glyph-name="uni1EC6" unicode="&#x1ec6;" horiz-adv-x="946" 
d="M840 1321v0h-727v-522h614v-108h-614v-579h727v-112h-727h-98h-15v1434h15v0h825v-113zM417 1779l269 -209l-46 -66l-224 139l-224 -139l-46 66zM339 -156q0 32 22.5 54t54.5 22t54 -22t22 -54t-22 -54.5t-54 -22.5t-54.5 22.5t-22.5 54.5z" />
    <glyph glyph-name="uni1EC7" unicode="&#x1ec7;" horiz-adv-x="1003" 
d="M496 0q-25 0 -50 3q-197 23 -323 176q-107 134 -107 300q0 26 3 52q27 202 167.5 315.5t313.5 113.5q23 0 47 -2q197 -23 323 -176l33 -40l-605 -571q72 -47 159 -56q18 -1 36 -1q188 0 305 155l92 -64q-161 -205 -394 -205zM496 849q-139 0 -243 -92.5t-122 -237.5
q-2 -21 -2 -41q0 -126 81 -229q2 -2 3 -4l535 505q-90 82 -213 96q-19 3 -39 3zM497 1303l269 -209l-46 -66l-224 139l-224 -139l-46 66zM419 -156q0 32 22.5 54t54.5 22t54 -22t22 -54t-22 -54.5t-54 -22.5t-54.5 22.5t-22.5 54.5z" />
    <glyph glyph-name="uni1EC8" unicode="&#x1ec8;" horiz-adv-x="263" 
d="M0 0v1434h113v-1434h-113zM-56 1788q78 15 132.5 2.5t85.5 -40.5t39 -66t-9 -74.5t-58.5 -66.5t-107.5 -42l-21 61q34 10 56 25.5t31.5 33t5.5 34.5t-21.5 29.5t-49 18.5t-77.5 0q-2 23 -3 42.5t-3 42.5z" />
    <glyph glyph-name="uni1EC9" unicode="&#x1ec9;" horiz-adv-x="304" 
d="M21 0v0v962h112v-962h-112zM-34 1312q78 15 132.5 2.5t85.5 -40.5t39 -66t-9 -74.5t-58.5 -66.5t-107.5 -42l-21 61q34 10 56 25.5t31.5 33t5.5 34.5t-21.5 29.5t-49 18.5t-77.5 0q-2 23 -3 42.5t-3 42.5z" />
    <glyph glyph-name="uni1ECA" unicode="&#x1eca;" horiz-adv-x="263" 
d="M0 0v1434h113v-1434h-113zM-22 -156q0 32 22.5 54t54.5 22t54 -22t22 -54t-22 -54.5t-54 -22.5t-54.5 22.5t-22.5 54.5z" />
    <glyph glyph-name="uni1ECB" unicode="&#x1ecb;" horiz-adv-x="304" 
d="M77 1099q-32 0 -54.5 22.5t-22.5 54.5t22.5 54.5t54.5 22.5t54.5 -22.5t22.5 -54.5t-22.5 -54.5t-54.5 -22.5zM21 0v962h112v-962h-112zM0 -156q0 32 22.5 54t54.5 22t54 -22t22 -54t-22 -54.5t-54 -22.5t-54.5 22.5t-22.5 54.5z" />
    <glyph glyph-name="uni1ECC" unicode="&#x1ecc;" 
d="M715 2q-296 0 -505.5 209.5t-209.5 504.5q0 296 209.5 505.5t505.5 209.5q295 0 504.5 -209.5t209.5 -505.5q0 -295 -209.5 -504.5t-504.5 -209.5zM715 1319q-249 0 -425.5 -177t-176.5 -426t176.5 -425.5t425.5 -176.5t425.5 176.5t176.5 425.5t-176.5 426t-425.5 177z
M638 -156q0 32 22.5 54t54.5 22t54 -22t22 -54t-22 -54.5t-54 -22.5t-54.5 22.5t-22.5 54.5z" />
    <glyph glyph-name="uni1ECD" unicode="&#x1ecd;" horiz-adv-x="1061" 
d="M480 0q-198 0 -339 141t-141 340q0 198 141 339t339 141q199 0 340 -141t141 -339q0 -199 -141 -340t-340 -141zM480 848q-152 0 -260 -107.5t-108 -259.5q0 -153 108 -260.5t260 -107.5q153 0 260.5 107.5t107.5 260.5q0 152 -107.5 259.5t-260.5 107.5zM403 -156
q0 32 22.5 54t54.5 22t54 -22t22 -54t-22 -54.5t-54 -22.5t-54.5 22.5t-22.5 54.5z" />
    <glyph glyph-name="uni1ECE" unicode="&#x1ece;" 
d="M715 2q-296 0 -505.5 209.5t-209.5 504.5q0 296 209.5 505.5t505.5 209.5q295 0 504.5 -209.5t209.5 -505.5q0 -295 -209.5 -504.5t-504.5 -209.5zM715 1319q-249 0 -425.5 -177t-176.5 -426t176.5 -425.5t425.5 -176.5t425.5 176.5t176.5 425.5t-176.5 426t-425.5 177z
M604 1788q78 15 132.5 2.5t85.5 -40.5t39 -66t-9 -74.5t-58.5 -66.5t-107.5 -42l-21 61q34 10 56 25.5t31.5 33t5.5 34.5t-21.5 29.5t-49 18.5t-77.5 0q-2 23 -3 42.5t-3 42.5z" />
    <glyph glyph-name="uni1ECF" unicode="&#x1ecf;" horiz-adv-x="1061" 
d="M480 0q-198 0 -339 141t-141 340q0 198 141 339t339 141q199 0 340 -141t141 -339q0 -199 -141 -340t-340 -141zM480 848q-152 0 -260 -107.5t-108 -259.5q0 -153 108 -260.5t260 -107.5q153 0 260.5 107.5t107.5 260.5q0 152 -107.5 259.5t-260.5 107.5zM369 1312
q78 15 132.5 2.5t85.5 -40.5t39 -66t-9 -74.5t-58.5 -66.5t-107.5 -42l-21 61q34 10 56 25.5t31.5 33t5.5 34.5t-21.5 29.5t-49 18.5t-77.5 0q-2 23 -3 42.5t-3 42.5z" />
    <glyph glyph-name="uni1ED0" unicode="&#x1ed0;" 
d="M715 2q-296 0 -505.5 209.5t-209.5 504.5q0 296 209.5 505.5t505.5 209.5q295 0 504.5 -209.5t209.5 -505.5q0 -295 -209.5 -504.5t-504.5 -209.5zM715 1319q-249 0 -425.5 -177t-176.5 -426t176.5 -425.5t425.5 -176.5t425.5 176.5t176.5 425.5t-176.5 426t-425.5 177z
M716 1779l269 -209l-46 -66l-224 139l-224 -139l-46 66zM911 1767l288 207l66 -98l-302 -188z" />
    <glyph glyph-name="uni1ED1" unicode="&#x1ed1;" horiz-adv-x="1061" 
d="M480 0q-198 0 -339 141t-141 340q0 198 141 339t339 141q199 0 340 -141t141 -339q0 -199 -141 -340t-340 -141zM480 848q-152 0 -260 -107.5t-108 -259.5q0 -153 108 -260.5t260 -107.5q153 0 260.5 107.5t107.5 260.5q0 152 -107.5 259.5t-260.5 107.5zM481 1303
l269 -209l-46 -66l-224 139l-224 -139l-46 66zM676 1291l288 207l66 -98l-302 -188z" />
    <glyph glyph-name="uni1ED2" unicode="&#x1ed2;" 
d="M715 2q-296 0 -505.5 209.5t-209.5 504.5q0 296 209.5 505.5t505.5 209.5q295 0 504.5 -209.5t209.5 -505.5q0 -295 -209.5 -504.5t-504.5 -209.5zM715 1319q-249 0 -425.5 -177t-176.5 -426t176.5 -425.5t425.5 -176.5t425.5 176.5t176.5 425.5t-176.5 426t-425.5 177z
M716 1779l269 -209l-46 -66l-224 139l-224 -139l-46 66zM738 1876l66 98l288 -207l-52 -79z" />
    <glyph glyph-name="uni1ED3" unicode="&#x1ed3;" horiz-adv-x="1061" 
d="M480 0q-198 0 -339 141t-141 340q0 198 141 339t339 141q199 0 340 -141t141 -339q0 -199 -141 -340t-340 -141zM480 848q-152 0 -260 -107.5t-108 -259.5q0 -153 108 -260.5t260 -107.5q153 0 260.5 107.5t107.5 260.5q0 152 -107.5 259.5t-260.5 107.5zM481 1303
l269 -209l-46 -66l-224 139l-224 -139l-46 66zM503 1400l66 98l288 -207l-52 -79z" />
    <glyph glyph-name="uni1ED4" unicode="&#x1ed4;" 
d="M715 2q-296 0 -505.5 209.5t-209.5 504.5q0 296 209.5 505.5t505.5 209.5q295 0 504.5 -209.5t209.5 -505.5q0 -295 -209.5 -504.5t-504.5 -209.5zM715 1319q-249 0 -425.5 -177t-176.5 -426t176.5 -425.5t425.5 -176.5t425.5 176.5t176.5 425.5t-176.5 426t-425.5 177z
M716 1779l269 -209l-46 -66l-224 139l-224 -139l-46 66zM851 1975q78 15 132.5 2.5t85.5 -40.5t39 -66t-9 -74.5t-58.5 -66.5t-107.5 -42l-21 61q34 10 56 25.5t31.5 33t5.5 34.5t-21.5 29.5t-49 18.5t-77.5 0q-2 23 -3 42.5t-3 42.5z" />
    <glyph glyph-name="uni1ED5" unicode="&#x1ed5;" horiz-adv-x="1061" 
d="M480 0q-198 0 -339 141t-141 340q0 198 141 339t339 141q199 0 340 -141t141 -339q0 -199 -141 -340t-340 -141zM480 848q-152 0 -260 -107.5t-108 -259.5q0 -153 108 -260.5t260 -107.5q153 0 260.5 107.5t107.5 260.5q0 152 -107.5 259.5t-260.5 107.5zM481 1303
l269 -209l-46 -66l-224 139l-224 -139l-46 66zM616 1499q78 15 132.5 2.5t85.5 -40.5t39 -66t-9 -74.5t-58.5 -66.5t-107.5 -42l-21 61q34 10 56 25.5t31.5 33t5.5 34.5t-21.5 29.5t-49 18.5t-77.5 0q-2 23 -3 42.5t-3 42.5z" />
    <glyph glyph-name="uni1ED6" unicode="&#x1ed6;" 
d="M715 2q-296 0 -505.5 209.5t-209.5 504.5q0 296 209.5 505.5t505.5 209.5q295 0 504.5 -209.5t209.5 -505.5q0 -295 -209.5 -504.5t-504.5 -209.5zM715 1319q-249 0 -425.5 -177t-176.5 -426t176.5 -425.5t425.5 -176.5t425.5 176.5t176.5 425.5t-176.5 426t-425.5 177z
M716 1779l269 -209l-46 -66l-224 139l-224 -139l-46 66zM475 1869q34 59 67 83.5t73 24.5q30 0 58 -9.5t53.5 -22t47.5 -22t39 -9.5q20 0 38.5 15t37.5 51l65 -52q-22 -52 -62 -81.5t-84 -29.5q-25 0 -50.5 9.5t-51 21t-49.5 21t-47 9.5q-20 0 -36.5 -13.5t-31.5 -49.5z" />
    <glyph glyph-name="uni1ED7" unicode="&#x1ed7;" horiz-adv-x="1061" 
d="M480 0q-198 0 -339 141t-141 340q0 198 141 339t339 141q199 0 340 -141t141 -339q0 -199 -141 -340t-340 -141zM480 848q-152 0 -260 -107.5t-108 -259.5q0 -153 108 -260.5t260 -107.5q153 0 260.5 107.5t107.5 260.5q0 152 -107.5 259.5t-260.5 107.5zM481 1303
l269 -209l-46 -66l-224 139l-224 -139l-46 66zM240 1393q34 59 67 83.5t73 24.5q30 0 58 -9.5t53.5 -22t47.5 -22t39 -9.5q20 0 38.5 15t37.5 51l65 -52q-22 -52 -62 -81.5t-84 -29.5q-25 0 -50.5 9.5t-51 21t-49.5 21t-47 9.5q-20 0 -36.5 -13.5t-31.5 -49.5z" />
    <glyph glyph-name="uni1ED8" unicode="&#x1ed8;" 
d="M715 2q-296 0 -505.5 209.5t-209.5 504.5q0 296 209.5 505.5t505.5 209.5q295 0 504.5 -209.5t209.5 -505.5q0 -295 -209.5 -504.5t-504.5 -209.5zM715 1319q-249 0 -425.5 -177t-176.5 -426t176.5 -425.5t425.5 -176.5t425.5 176.5t176.5 425.5t-176.5 426t-425.5 177z
M716 1779l269 -209l-46 -66l-224 139l-224 -139l-46 66zM638 -156q0 32 22.5 54t54.5 22t54 -22t22 -54t-22 -54.5t-54 -22.5t-54.5 22.5t-22.5 54.5z" />
    <glyph glyph-name="uni1ED9" unicode="&#x1ed9;" horiz-adv-x="1061" 
d="M480 0q-198 0 -339 141t-141 340q0 198 141 339t339 141q199 0 340 -141t141 -339q0 -199 -141 -340t-340 -141zM480 848q-152 0 -260 -107.5t-108 -259.5q0 -153 108 -260.5t260 -107.5q153 0 260.5 107.5t107.5 260.5q0 152 -107.5 259.5t-260.5 107.5zM481 1303
l269 -209l-46 -66l-224 139l-224 -139l-46 66zM403 -156q0 32 22.5 54t54.5 22t54 -22t22 -54t-22 -54.5t-54 -22.5t-54.5 22.5t-22.5 54.5z" />
    <glyph glyph-name="uni1EDA" unicode="&#x1eda;" 
d="M715 2q-296 0 -505.5 209.5t-209.5 504.5q0 296 209.5 505.5t505.5 209.5q103 0 195 -26v1q18 -2 35 -3t32 -1q68 0 107.5 18t59 50t23.5 75.5t1 95.5h99q3 -45 0.5 -93.5t-20.5 -92t-56 -77.5t-106 -49q71 -44 135 -107q209 -210 209 -506q0 -295 -209.5 -504.5
t-504.5 -209.5zM715 1319q-249 0 -425.5 -177t-176.5 -426t176.5 -425.5t425.5 -176.5t425.5 176.5t176.5 425.5t-176.5 426t-425.5 177zM603 1578l288 207l66 -98l-302 -188z" />
    <glyph glyph-name="uni1EDB" unicode="&#x1edb;" horiz-adv-x="1061" 
d="M480 0q-198 0 -339 141t-141 340q0 198 141 339t339 141q61 0 116 -13q14 -2 25.5 -3t22.5 -1q49 0 74.5 19.5t37 48.5t12.5 62.5t1 62.5h110q0 -29 -2 -66t-15 -73t-41 -66t-81 -46q42 -28 80 -66q141 -141 141 -339q0 -199 -141 -340t-340 -141zM480 848
q-152 0 -260 -107.5t-108 -259.5q0 -153 108 -260.5t260 -107.5q153 0 260.5 107.5t107.5 260.5q0 152 -107.5 259.5t-260.5 107.5zM368 1102l288 207l66 -98l-302 -188z" />
    <glyph glyph-name="uni1EDC" unicode="&#x1edc;" 
d="M715 2q-296 0 -505.5 209.5t-209.5 504.5q0 296 209.5 505.5t505.5 209.5q103 0 195 -26v1q18 -2 35 -3t32 -1q68 0 107.5 18t59 50t23.5 75.5t1 95.5h99q3 -45 0.5 -93.5t-20.5 -92t-56 -77.5t-106 -49q71 -44 135 -107q209 -210 209 -506q0 -295 -209.5 -504.5
t-504.5 -209.5zM715 1319q-249 0 -425.5 -177t-176.5 -426t176.5 -425.5t425.5 -176.5t425.5 176.5t176.5 425.5t-176.5 426t-425.5 177zM474 1687l66 98l288 -207l-52 -79z" />
    <glyph glyph-name="uni1EDD" unicode="&#x1edd;" horiz-adv-x="1061" 
d="M480 0q-198 0 -339 141t-141 340q0 198 141 339t339 141q61 0 116 -13q14 -2 25.5 -3t22.5 -1q49 0 74.5 19.5t37 48.5t12.5 62.5t1 62.5h110q0 -29 -2 -66t-15 -73t-41 -66t-81 -46q42 -28 80 -66q141 -141 141 -339q0 -199 -141 -340t-340 -141zM480 848
q-152 0 -260 -107.5t-108 -259.5q0 -153 108 -260.5t260 -107.5q153 0 260.5 107.5t107.5 260.5q0 152 -107.5 259.5t-260.5 107.5zM239 1211l66 98l288 -207l-52 -79z" />
    <glyph glyph-name="uni1EDE" unicode="&#x1ede;" 
d="M715 2q-296 0 -505.5 209.5t-209.5 504.5q0 296 209.5 505.5t505.5 209.5q103 0 195 -26v1q18 -2 35 -3t32 -1q68 0 107.5 18t59 50t23.5 75.5t1 95.5h99q3 -45 0.5 -93.5t-20.5 -92t-56 -77.5t-106 -49q71 -44 135 -107q209 -210 209 -506q0 -295 -209.5 -504.5
t-504.5 -209.5zM715 1319q-249 0 -425.5 -177t-176.5 -426t176.5 -425.5t425.5 -176.5t425.5 176.5t176.5 425.5t-176.5 426t-425.5 177zM604 1788q78 15 132.5 2.5t85.5 -40.5t39 -66t-9 -74.5t-58.5 -66.5t-107.5 -42l-21 61q34 10 56 25.5t31.5 33t5.5 34.5t-21.5 29.5
t-49 18.5t-77.5 0q-2 23 -3 42.5t-3 42.5z" />
    <glyph glyph-name="uni1EDF" unicode="&#x1edf;" horiz-adv-x="1061" 
d="M480 0q-198 0 -339 141t-141 340q0 198 141 339t339 141q61 0 116 -13q14 -2 25.5 -3t22.5 -1q49 0 74.5 19.5t37 48.5t12.5 62.5t1 62.5h110q0 -29 -2 -66t-15 -73t-41 -66t-81 -46q42 -28 80 -66q141 -141 141 -339q0 -199 -141 -340t-340 -141zM480 848
q-152 0 -260 -107.5t-108 -259.5q0 -153 108 -260.5t260 -107.5q153 0 260.5 107.5t107.5 260.5q0 152 -107.5 259.5t-260.5 107.5zM369 1312q78 15 132.5 2.5t85.5 -40.5t39 -66t-9 -74.5t-58.5 -66.5t-107.5 -42l-21 61q34 10 56 25.5t31.5 33t5.5 34.5t-21.5 29.5
t-49 18.5t-77.5 0q-2 23 -3 42.5t-3 42.5z" />
    <glyph glyph-name="uni1EE0" unicode="&#x1ee0;" 
d="M715 2q-296 0 -505.5 209.5t-209.5 504.5q0 296 209.5 505.5t505.5 209.5q103 0 195 -26v1q18 -2 35 -3t32 -1q68 0 107.5 18t59 50t23.5 75.5t1 95.5h99q3 -45 0.5 -93.5t-20.5 -92t-56 -77.5t-106 -49q71 -44 135 -107q209 -210 209 -506q0 -295 -209.5 -504.5
t-504.5 -209.5zM715 1319q-249 0 -425.5 -177t-176.5 -426t176.5 -425.5t425.5 -176.5t425.5 176.5t176.5 425.5t-176.5 426t-425.5 177zM475 1632q34 59 67 83.5t73 24.5q30 0 58 -9.5t53.5 -22t47.5 -22t39 -9.5q20 0 38.5 15t37.5 51l65 -52q-22 -52 -62 -81.5t-84 -29.5
q-25 0 -50.5 9.5t-51 21t-49.5 21t-47 9.5q-20 0 -36.5 -13.5t-31.5 -49.5z" />
    <glyph glyph-name="uni1EE1" unicode="&#x1ee1;" horiz-adv-x="1061" 
d="M480 0q-198 0 -339 141t-141 340q0 198 141 339t339 141q61 0 116 -13q14 -2 25.5 -3t22.5 -1q49 0 74.5 19.5t37 48.5t12.5 62.5t1 62.5h110q0 -29 -2 -66t-15 -73t-41 -66t-81 -46q42 -28 80 -66q141 -141 141 -339q0 -199 -141 -340t-340 -141zM480 848
q-152 0 -260 -107.5t-108 -259.5q0 -153 108 -260.5t260 -107.5q153 0 260.5 107.5t107.5 260.5q0 152 -107.5 259.5t-260.5 107.5zM240 1156q34 59 67 83.5t73 24.5q30 0 58 -9.5t53.5 -22t47.5 -22t39 -9.5q20 0 38.5 15t37.5 51l65 -52q-22 -52 -62 -81.5t-84 -29.5
q-25 0 -50.5 9.5t-51 21t-49.5 21t-47 9.5q-20 0 -36.5 -13.5t-31.5 -49.5z" />
    <glyph glyph-name="uni1EE2" unicode="&#x1ee2;" 
d="M715 2q-296 0 -505.5 209.5t-209.5 504.5q0 296 209.5 505.5t505.5 209.5q103 0 195 -26v1q18 -2 35 -3t32 -1q68 0 107.5 18t59 50t23.5 75.5t1 95.5h99q3 -45 0.5 -93.5t-20.5 -92t-56 -77.5t-106 -49q71 -44 135 -107q209 -210 209 -506q0 -295 -209.5 -504.5
t-504.5 -209.5zM715 1319q-249 0 -425.5 -177t-176.5 -426t176.5 -425.5t425.5 -176.5t425.5 176.5t176.5 425.5t-176.5 426t-425.5 177zM638 -156q0 32 22.5 54t54.5 22t54 -22t22 -54t-22 -54.5t-54 -22.5t-54.5 22.5t-22.5 54.5z" />
    <glyph glyph-name="uni1EE3" unicode="&#x1ee3;" horiz-adv-x="1061" 
d="M480 0q-198 0 -339 141t-141 340q0 198 141 339t339 141q61 0 116 -13q14 -2 25.5 -3t22.5 -1q49 0 74.5 19.5t37 48.5t12.5 62.5t1 62.5h110q0 -29 -2 -66t-15 -73t-41 -66t-81 -46q42 -28 80 -66q141 -141 141 -339q0 -199 -141 -340t-340 -141zM480 848
q-152 0 -260 -107.5t-108 -259.5q0 -153 108 -260.5t260 -107.5q153 0 260.5 107.5t107.5 260.5q0 152 -107.5 259.5t-260.5 107.5zM403 -156q0 32 22.5 54t54.5 22t54 -22t22 -54t-22 -54.5t-54 -22.5t-54.5 22.5t-22.5 54.5z" />
    <glyph glyph-name="uni1EE4" unicode="&#x1ee4;" horiz-adv-x="1214" 
d="M532 2q-220 0 -373 146t-159 361v922h112v-922q5 -168 126 -281.5t294 -113.5t294 113.5t126 281.5v922h112v-922q-6 -215 -159 -361t-373 -146zM455 -156q0 32 22.5 54t54.5 22t54 -22t22 -54t-22 -54.5t-54 -22.5t-54.5 22.5t-22.5 54.5z" />
    <glyph glyph-name="uni1EE5" unicode="&#x1ee5;" horiz-adv-x="1013" 
d="M913 961v-3v-4v-2v-2v-5v-2v-32v-8v-24v-21v-5v-15v-5v-8v-13v-6v-58v-12v-33v-26v-6v-17v-5v-9v-13v-6v-54v-9v-26v-18v-4v-11v-3v-5v-7v-3v-20v-2v-3q-5 -194 -136.5 -325t-319.5 -131q-189 0 -320.5 131t-136.5 325v505h112v0v-1v0v-2v-2v-1v-3v-3v-2v-2v-2v-38v-4
v-10v-5v-5v-4v-5v-5v-2v-13v-5v-5v-12v-8v-6v-5v-5v-69v-6v-16v-6v-6v-6v-5v-6v-3v-14v-6v-5v-14v-8v-5v-5v-6v-60v-5v-11v-5v-5v-4v-4v-4v-2v-10v-4v-3v-9v-4v-3v-3v-3v-22v0v-2v-1q4 -146 103 -244.5t242 -98.5q142 0 241 98.5t103 244.5v3v2v1v1v2v1v2v2v40v8v6v5v9v21v5
v5v5v5v5v6v5v5v75v12v8v6v13v26v6v6v5v6v5v6v6v5v69v10v7v5v9v18v4v4v3v4v3v3v3v3v27v2v1v1h112zM380 -156q0 32 22.5 54t54.5 22t54 -22t22 -54t-22 -54.5t-54 -22.5t-54.5 22.5t-22.5 54.5z" />
    <glyph glyph-name="uni1EE6" unicode="&#x1ee6;" horiz-adv-x="1214" 
d="M532 2q-220 0 -373 146t-159 361v922h112v-922q5 -168 126 -281.5t294 -113.5t294 113.5t126 281.5v922h112v-922q-6 -215 -159 -361t-373 -146zM421 1788q78 15 132.5 2.5t85.5 -40.5t39 -66t-9 -74.5t-58.5 -66.5t-107.5 -42l-21 61q34 10 56 25.5t31.5 33t5.5 34.5
t-21.5 29.5t-49 18.5t-77.5 0q-2 23 -3 42.5t-3 42.5z" />
    <glyph glyph-name="uni1EE7" unicode="&#x1ee7;" horiz-adv-x="1013" 
d="M913 961v-3v-4v-2v-2v-5v-2v-32v-8v-24v-21v-5v-15v-5v-8v-13v-6v-58v-12v-33v-26v-6v-17v-5v-9v-13v-6v-54v-9v-26v-18v-4v-11v-3v-5v-7v-3v-20v-2v-3q-5 -194 -136.5 -325t-319.5 -131q-189 0 -320.5 131t-136.5 325v505h112v0v-1v0v-2v-2v-1v-3v-3v-2v-2v-2v-38v-4
v-10v-5v-5v-4v-5v-5v-2v-13v-5v-5v-12v-8v-6v-5v-5v-69v-6v-16v-6v-6v-6v-5v-6v-3v-14v-6v-5v-14v-8v-5v-5v-6v-60v-5v-11v-5v-5v-4v-4v-4v-2v-10v-4v-3v-9v-4v-3v-3v-3v-22v0v-2v-1q4 -146 103 -244.5t242 -98.5q142 0 241 98.5t103 244.5v3v2v1v1v2v1v2v2v40v8v6v5v9v21v5
v5v5v5v5v6v5v5v75v12v8v6v13v26v6v6v5v6v5v6v6v5v69v10v7v5v9v18v4v4v3v4v3v3v3v3v27v2v1v1h112zM346 1312q78 15 132.5 2.5t85.5 -40.5t39 -66t-9 -74.5t-58.5 -66.5t-107.5 -42l-21 61q34 10 56 25.5t31.5 33t5.5 34.5t-21.5 29.5t-49 18.5t-77.5 0q-2 23 -3 42.5t-3 42.5
z" />
    <glyph glyph-name="uni1EE8" unicode="&#x1ee8;" horiz-adv-x="1214" 
d="M532 2q-220 0 -373 146t-159 361v922h112v-922q5 -168 126 -281.5t294 -113.5t294 113.5t126 281.5v922h101q36 6 55.5 25.5t28 48t9 64t-1.5 73.5h100q3 -46 0 -95t-21 -90t-55.5 -70.5t-103.5 -38.5v-839q-6 -215 -159 -361t-373 -146zM420 1578l288 207l66 -98
l-302 -188z" />
    <glyph glyph-name="uni1EE9" unicode="&#x1ee9;" horiz-adv-x="1013" 
d="M0 961h112v0v-1v0v-2v-2v-1v-3v-3v-2v-2v-2v-38v-4v-10v-5v-5v-4v-5v-5v-2v-13v-5v-5v-12v-8v-6v-5v-5v-69v-6v-16v-6v-6v-6v-5v-6v-3v-14v-6v-5v-14v-8v-5v-5v-6v-60v-5v-11v-5v-5v-4v-4v-4v-2v-10v-4v-3v-9v-4v-3v-3v-3v-22v0v-2v-1q4 -146 103 -244.5t242 -98.5
q142 0 241 98.5t103 244.5v3v2v1v1v2v1v2v2v40v8v6v5v9v21v5v5v5v5v5v6v5v5v75v12v8v6v13v26v6v6v5v6v5v6v6v5v69v10v7v5v9v18v4v4v3v4v3v3v3v3v27v2v1v1h24q50 2 75 18.5t35 41t10 55.5v61h110q0 -28 -2 -65t-15 -72.5t-42 -64t-83 -39.5v-17v-21v-5v-15v-5v-8v-13v-6v-58
v-12v-33v-26v-6v-17v-5v-9v-13v-6v-54v-9v-26v-18v-4v-11v-3v-5v-7v-3v-20v-2v-3q-5 -194 -136.5 -325t-319.5 -131q-189 0 -320.5 131t-136.5 325v505zM345 1102l288 207l66 -98l-302 -188z" />
    <glyph glyph-name="uni1EEA" unicode="&#x1eea;" horiz-adv-x="1214" 
d="M532 2q-220 0 -373 146t-159 361v922h112v-922q5 -168 126 -281.5t294 -113.5t294 113.5t126 281.5v922h101q36 6 55.5 25.5t28 48t9 64t-1.5 73.5h100q3 -46 0 -95t-21 -90t-55.5 -70.5t-103.5 -38.5v-839q-6 -215 -159 -361t-373 -146zM291 1687l66 98l288 -207
l-52 -79z" />
    <glyph glyph-name="uni1EEB" unicode="&#x1eeb;" horiz-adv-x="1013" 
d="M0 961h112v0v-1v0v-2v-2v-1v-3v-3v-2v-2v-2v-38v-4v-10v-5v-5v-4v-5v-5v-2v-13v-5v-5v-12v-8v-6v-5v-5v-69v-6v-16v-6v-6v-6v-5v-6v-3v-14v-6v-5v-14v-8v-5v-5v-6v-60v-5v-11v-5v-5v-4v-4v-4v-2v-10v-4v-3v-9v-4v-3v-3v-3v-22v0v-2v-1q4 -146 103 -244.5t242 -98.5
q142 0 241 98.5t103 244.5v3v2v1v1v2v1v2v2v40v8v6v5v9v21v5v5v5v5v5v6v5v5v75v12v8v6v13v26v6v6v5v6v5v6v6v5v69v10v7v5v9v18v4v4v3v4v3v3v3v3v27v2v1v1h24q50 2 75 18.5t35 41t10 55.5v61h110q0 -28 -2 -65t-15 -72.5t-42 -64t-83 -39.5v-17v-21v-5v-15v-5v-8v-13v-6v-58
v-12v-33v-26v-6v-17v-5v-9v-13v-6v-54v-9v-26v-18v-4v-11v-3v-5v-7v-3v-20v-2v-3q-5 -194 -136.5 -325t-319.5 -131q-189 0 -320.5 131t-136.5 325v505zM216 1211l66 98l288 -207l-52 -79z" />
    <glyph glyph-name="uni1EEC" unicode="&#x1eec;" horiz-adv-x="1214" 
d="M532 2q-220 0 -373 146t-159 361v922h112v-922q5 -168 126 -281.5t294 -113.5t294 113.5t126 281.5v922h101q36 6 55.5 25.5t28 48t9 64t-1.5 73.5h100q3 -46 0 -95t-21 -90t-55.5 -70.5t-103.5 -38.5v-839q-6 -215 -159 -361t-373 -146zM421 1788q78 15 132.5 2.5
t85.5 -40.5t39 -66t-9 -74.5t-58.5 -66.5t-107.5 -42l-21 61q34 10 56 25.5t31.5 33t5.5 34.5t-21.5 29.5t-49 18.5t-77.5 0q-2 23 -3 42.5t-3 42.5z" />
    <glyph glyph-name="uni1EED" unicode="&#x1eed;" horiz-adv-x="1013" 
d="M0 961h112v0v-1v0v-2v-2v-1v-3v-3v-2v-2v-2v-38v-4v-10v-5v-5v-4v-5v-5v-2v-13v-5v-5v-12v-8v-6v-5v-5v-69v-6v-16v-6v-6v-6v-5v-6v-3v-14v-6v-5v-14v-8v-5v-5v-6v-60v-5v-11v-5v-5v-4v-4v-4v-2v-10v-4v-3v-9v-4v-3v-3v-3v-22v0v-2v-1q4 -146 103 -244.5t242 -98.5
q142 0 241 98.5t103 244.5v3v2v1v1v2v1v2v2v40v8v6v5v9v21v5v5v5v5v5v6v5v5v75v12v8v6v13v26v6v6v5v6v5v6v6v5v69v10v7v5v9v18v4v4v3v4v3v3v3v3v27v2v1v1h24q50 2 75 18.5t35 41t10 55.5v61h110q0 -28 -2 -65t-15 -72.5t-42 -64t-83 -39.5v-17v-21v-5v-15v-5v-8v-13v-6v-58
v-12v-33v-26v-6v-17v-5v-9v-13v-6v-54v-9v-26v-18v-4v-11v-3v-5v-7v-3v-20v-2v-3q-5 -194 -136.5 -325t-319.5 -131q-189 0 -320.5 131t-136.5 325v505zM346 1312q78 15 132.5 2.5t85.5 -40.5t39 -66t-9 -74.5t-58.5 -66.5t-107.5 -42l-21 61q34 10 56 25.5t31.5 33
t5.5 34.5t-21.5 29.5t-49 18.5t-77.5 0q-2 23 -3 42.5t-3 42.5z" />
    <glyph glyph-name="uni1EEE" unicode="&#x1eee;" horiz-adv-x="1214" 
d="M532 2q-220 0 -373 146t-159 361v922h112v-922q5 -168 126 -281.5t294 -113.5t294 113.5t126 281.5v922h101q36 6 55.5 25.5t28 48t9 64t-1.5 73.5h100q3 -46 0 -95t-21 -90t-55.5 -70.5t-103.5 -38.5v-839q-6 -215 -159 -361t-373 -146zM292 1632q34 59 67 83.5t73 24.5
q30 0 58 -9.5t53.5 -22t47.5 -22t39 -9.5q20 0 38.5 15t37.5 51l65 -52q-22 -52 -62 -81.5t-84 -29.5q-25 0 -50.5 9.5t-51 21t-49.5 21t-47 9.5q-20 0 -36.5 -13.5t-31.5 -49.5z" />
    <glyph glyph-name="uni1EEF" unicode="&#x1eef;" horiz-adv-x="1013" 
d="M0 961h112v0v-1v0v-2v-2v-1v-3v-3v-2v-2v-2v-38v-4v-10v-5v-5v-4v-5v-5v-2v-13v-5v-5v-12v-8v-6v-5v-5v-69v-6v-16v-6v-6v-6v-5v-6v-3v-14v-6v-5v-14v-8v-5v-5v-6v-60v-5v-11v-5v-5v-4v-4v-4v-2v-10v-4v-3v-9v-4v-3v-3v-3v-22v0v-2v-1q4 -146 103 -244.5t242 -98.5
q142 0 241 98.5t103 244.5v3v2v1v1v2v1v2v2v40v8v6v5v9v21v5v5v5v5v5v6v5v5v75v12v8v6v13v26v6v6v5v6v5v6v6v5v69v10v7v5v9v18v4v4v3v4v3v3v3v3v27v2v1v1h24q50 2 75 18.5t35 41t10 55.5v61h110q0 -28 -2 -65t-15 -72.5t-42 -64t-83 -39.5v-17v-21v-5v-15v-5v-8v-13v-6v-58
v-12v-33v-26v-6v-17v-5v-9v-13v-6v-54v-9v-26v-18v-4v-11v-3v-5v-7v-3v-20v-2v-3q-5 -194 -136.5 -325t-319.5 -131q-189 0 -320.5 131t-136.5 325v505zM217 1156q34 59 67 83.5t73 24.5q30 0 58 -9.5t53.5 -22t47.5 -22t39 -9.5q20 0 38.5 15t37.5 51l65 -52
q-22 -52 -62 -81.5t-84 -29.5q-25 0 -50.5 9.5t-51 21t-49.5 21t-47 9.5q-20 0 -36.5 -13.5t-31.5 -49.5z" />
    <glyph glyph-name="uni1EF0" unicode="&#x1ef0;" horiz-adv-x="1214" 
d="M532 2q-220 0 -373 146t-159 361v922h112v-922q5 -168 126 -281.5t294 -113.5t294 113.5t126 281.5v922h101q36 6 55.5 25.5t28 48t9 64t-1.5 73.5h100q3 -46 0 -95t-21 -90t-55.5 -70.5t-103.5 -38.5v-839q-6 -215 -159 -361t-373 -146zM455 -156q0 32 22.5 54t54.5 22
t54 -22t22 -54t-22 -54.5t-54 -22.5t-54.5 22.5t-22.5 54.5z" />
    <glyph glyph-name="uni1EF1" unicode="&#x1ef1;" horiz-adv-x="1013" 
d="M0 961h112v0v-1v0v-2v-2v-1v-3v-3v-2v-2v-2v-38v-4v-10v-5v-5v-4v-5v-5v-2v-13v-5v-5v-12v-8v-6v-5v-5v-69v-6v-16v-6v-6v-6v-5v-6v-3v-14v-6v-5v-14v-8v-5v-5v-6v-60v-5v-11v-5v-5v-4v-4v-4v-2v-10v-4v-3v-9v-4v-3v-3v-3v-22v0v-2v-1q4 -146 103 -244.5t242 -98.5
q142 0 241 98.5t103 244.5v3v2v1v1v2v1v2v2v40v8v6v5v9v21v5v5v5v5v5v6v5v5v75v12v8v6v13v26v6v6v5v6v5v6v6v5v69v10v7v5v9v18v4v4v3v4v3v3v3v3v27v2v1v1h24q50 2 75 18.5t35 41t10 55.5v61h110q0 -28 -2 -65t-15 -72.5t-42 -64t-83 -39.5v-17v-21v-5v-15v-5v-8v-13v-6v-58
v-12v-33v-26v-6v-17v-5v-9v-13v-6v-54v-9v-26v-18v-4v-11v-3v-5v-7v-3v-20v-2v-3q-5 -194 -136.5 -325t-319.5 -131q-189 0 -320.5 131t-136.5 325v505zM380 -156q0 32 22.5 54t54.5 22t54 -22t22 -54t-22 -54.5t-54 -22.5t-54.5 22.5t-22.5 54.5z" />
    <glyph glyph-name="Ygrave" unicode="&#x1ef2;" horiz-adv-x="1354" 
d="M1254 1434l-571 -741v-694h-112v694l-571 741h142l485 -630l485 630h142zM386 1687l66 98l288 -207l-52 -79z" />
    <glyph glyph-name="ygrave" unicode="&#x1ef3;" horiz-adv-x="1187" 
d="M1087 961l-471 -916q-3 -6 -7 -11l-241 -469l-100 51l213 413q-6 7 -11 16l-470 916h126l417 -811l219 427h1l198 384h126zM303 1211l66 98l288 -207l-52 -79z" />
    <glyph glyph-name="uni1EF4" unicode="&#x1ef4;" horiz-adv-x="1354" 
d="M1254 1434l-571 -741v-694h-112v694l-571 741h142l485 -630l485 630h142zM550 -156q0 32 22.5 54t54.5 22t54 -22t22 -54t-22 -54.5t-54 -22.5t-54.5 22.5t-22.5 54.5z" />
    <glyph glyph-name="uni1EF5" unicode="&#x1ef5;" horiz-adv-x="1187" 
d="M1087 961l-471 -916q-3 -6 -7 -11l-241 -469l-100 51l213 413q-6 7 -11 16l-470 916h126l417 -811l219 427h1l198 384h126zM621 -156q0 32 22.5 54t54.5 22t54 -22t22 -54t-22 -54.5t-54 -22.5t-54.5 22.5t-22.5 54.5z" />
    <glyph glyph-name="uni1EF6" unicode="&#x1ef6;" horiz-adv-x="1354" 
d="M1254 1434l-571 -741v-694h-112v694l-571 741h142l485 -630l485 630h142zM516 1788q78 15 132.5 2.5t85.5 -40.5t39 -66t-9 -74.5t-58.5 -66.5t-107.5 -42l-21 61q34 10 56 25.5t31.5 33t5.5 34.5t-21.5 29.5t-49 18.5t-77.5 0q-2 23 -3 42.5t-3 42.5z" />
    <glyph glyph-name="uni1EF7" unicode="&#x1ef7;" horiz-adv-x="1187" 
d="M1087 961l-471 -916q-3 -6 -7 -11l-241 -469l-100 51l213 413q-6 7 -11 16l-470 916h126l417 -811l219 427h1l198 384h126zM433 1312q78 15 132.5 2.5t85.5 -40.5t39 -66t-9 -74.5t-58.5 -66.5t-107.5 -42l-21 61q34 10 56 25.5t31.5 33t5.5 34.5t-21.5 29.5t-49 18.5
t-77.5 0q-2 23 -3 42.5t-3 42.5z" />
    <glyph glyph-name="uni1EF8" unicode="&#x1ef8;" horiz-adv-x="1354" 
d="M1254 1434l-571 -741v-694h-112v694l-571 741h142l485 -630l485 630h142zM387 1632q34 59 67 83.5t73 24.5q30 0 58 -9.5t53.5 -22t47.5 -22t39 -9.5q20 0 38.5 15t37.5 51l65 -52q-22 -52 -62 -81.5t-84 -29.5q-25 0 -50.5 9.5t-51 21t-49.5 21t-47 9.5
q-20 0 -36.5 -13.5t-31.5 -49.5z" />
    <glyph glyph-name="uni1EF9" unicode="&#x1ef9;" horiz-adv-x="1187" 
d="M1087 961l-471 -916q-3 -6 -7 -11l-241 -469l-100 51l213 413q-6 7 -11 16l-470 916h126l417 -811l219 427h1l198 384h126zM304 1156q34 59 67 83.5t73 24.5q30 0 58 -9.5t53.5 -22t47.5 -22t39 -9.5q20 0 38.5 15t37.5 51l65 -52q-22 -52 -62 -81.5t-84 -29.5
q-25 0 -50.5 9.5t-51 21t-49.5 21t-47 9.5q-20 0 -36.5 -13.5t-31.5 -49.5z" />
    <glyph glyph-name="endash" unicode="&#x2013;" horiz-adv-x="1019" 
d="M0 571v112h919v-112v0h-919z" />
    <glyph glyph-name="emdash" unicode="&#x2014;" horiz-adv-x="1252" 
d="M0 571v112h1152v-112v0h-1152z" />
    <glyph glyph-name="quoteleft" unicode="&#x2018;" horiz-adv-x="255" 
d="M0 1273v0q0 9 2 18q7 27 32.5 58.5t51.5 55t33 28.5l14 -17q-34 -28 -70 -67q7 1 14 1q32 0 55 -22.5t23 -54.5t-23 -55t-55 -23t-54.5 23t-22.5 55z" />
    <glyph glyph-name="quoteright" unicode="&#x2019;" horiz-adv-x="255" 
d="M155 1356v0q0 -9 -2 -18q-7 -28 -32.5 -59t-51.5 -54.5t-33 -29.5l-14 18q34 27 69 67q-6 -2 -13 -2q-32 0 -55 23t-23 55t23 54.5t55 22.5t54.5 -22.5t22.5 -54.5z" />
    <glyph glyph-name="quotesinglbase" unicode="&#x201a;" horiz-adv-x="255" 
d="M155 78v0q0 -9 -2 -18q-7 -28 -32.5 -59t-51.5 -54.5t-33 -28.5l-14 17q34 28 69 67q-6 -1 -13 -1q-32 0 -55 22.5t-23 54.5t23 55t55 23t54.5 -23t22.5 -55z" />
    <glyph glyph-name="quotedblleft" unicode="&#x201c;" horiz-adv-x="427" 
d="M78 1350v0q32 0 54.5 -22.5t22.5 -54.5t-22.5 -55t-54.5 -23t-55 23t-23 55q0 9 3 18q7 27 32.5 58.5t51 55t33.5 28.5l14 -17q-34 -28 -70 -67q7 1 14 1zM249 1350v0q32 0 55 -22.5t23 -54.5t-23 -55t-55 -23t-54.5 23t-22.5 55q0 9 2 18q7 27 32.5 58.5t51.5 55
t33 28.5l14 -17q-34 -28 -70 -67q7 1 14 1z" />
    <glyph glyph-name="quotedblright" unicode="&#x201d;" horiz-adv-x="426" 
d="M249 1433v0q32 0 54.5 -22.5t22.5 -54.5q0 -9 -2 -18q-7 -28 -32.5 -59t-51.5 -54.5t-33 -29.5l-14 18q34 27 70 67q-7 -2 -14 -2q-32 0 -55 23t-23 55t23 54.5t55 22.5zM78 1433v0q32 0 54.5 -22.5t22.5 -54.5q0 -9 -2 -18q-7 -28 -33 -59t-51.5 -54.5t-32.5 -29.5
l-15 18q35 27 70 67q-6 -2 -13 -2q-32 0 -55 23t-23 55t23 54.5t55 22.5z" />
    <glyph glyph-name="quotedblbase" unicode="&#x201e;" horiz-adv-x="426" 
d="M249 155v0q32 0 54.5 -22.5t22.5 -54.5q0 -10 -2 -18q-7 -28 -32.5 -59t-51.5 -54.5t-33 -29.5l-14 18q34 27 70 67q-7 -2 -14 -2q-32 0 -55 23t-23 55t23 54.5t55 22.5zM78 155v0q32 0 54.5 -22.5t22.5 -54.5q0 -10 -2 -18q-7 -28 -33 -59t-51.5 -54.5t-32.5 -29.5
l-15 18q35 27 70 67q-6 -2 -13 -2q-33 0 -55.5 23t-22.5 55t22.5 54.5t55.5 22.5z" />
    <glyph glyph-name="ellipsis" unicode="&#x2026;" horiz-adv-x="946" 
d="M77 155v0q32 0 54.5 -23t22.5 -55t-22.5 -54.5t-54.5 -22.5t-54.5 22.5t-22.5 54.5t22.5 55t54.5 23zM423 155v0q32 0 54.5 -23t22.5 -55t-22.5 -54.5t-54.5 -22.5t-54.5 22.5t-22.5 54.5t22.5 55t54.5 23zM769 155v0q32 0 54.5 -23t22.5 -55t-22.5 -54.5t-54.5 -22.5
t-55 22.5t-23 54.5t23 55t55 23z" />
    <glyph glyph-name="Euro" unicode="&#x20ac;" horiz-adv-x="1463" 
d="M1273 436v0l90 -49q-192 -324 -568 -338h-3q-438 0 -622 460h-170v112h146q-5 37 -5 75q0 17 1 34h-142v113h157q54 221 225 361t406 146q269 -2 461 -188l-71 -73q-168 159 -386 159h-3q-192 -5 -334 -116.5t-192 -288.5l412 -1v-112h-431q-1 -16 -1 -33q1 -39 6 -76
h426v-113l-397 1q161 -358 514 -358h3q316 12 478 285z" />
    <glyph glyph-name="hookabovecomb.case" horiz-adv-x="683" 
d="M302 823q78 15 132.5 2.5t85.5 -40.5t39 -66t-9 -74.5t-58.5 -66.5t-107.5 -42l-21 61q34 10 56 25.5t31.5 33t5.5 34.5t-21.5 29.5t-49 18.5t-77.5 0q-2 23 -3 42.5t-3 42.5z" />
    <glyph glyph-name="dotbelowcomb.case" horiz-adv-x="683" 
d="M308 926q0 32 22.5 54t54.5 22t54 -22t22 -54t-22 -54.5t-54 -22.5t-54.5 22.5t-22.5 54.5z" />
    </font>
</defs>
</svg>
